<svg xmlns="http://www.w3.org/2000/svg" viewBox="0 0 500 500"><g id="freepik--Floor--inject-7"><path id="freepik--floor--inject-7" d="M81,450c-93.33-53.89-93.33-141.25,0-195.13s244.65-53.88,338,0S512.32,396.12,419,450,174.34,503.89,81,450Z" style="fill:#f5f5f5"></path></g><g id="freepik--Shadows--inject-7"><path id="freepik--Shadow--inject-7" d="M309.27,286.66,298,280.15a4.6,4.6,0,0,0-4.15,0l-241,139.13a1.27,1.27,0,0,0,0,2.41l11.48,6.7a4.55,4.55,0,0,0,4.14,0l40.78-23.6A17.74,17.74,0,0,0,111,406l31.23,18A30,30,0,0,0,170,424l60.27-34.79c4.47-2.59,7-6.44,7-10.57s-2.57-8-7-10.58l-28.81-16.63,107.86-62.4A1.27,1.27,0,0,0,309.27,286.66Z" style="fill:#e0e0e0"></path><ellipse id="freepik--shadow--inject-7" cx="184.23" cy="440.34" rx="58.83" ry="33.96" style="fill:#e0e0e0"></ellipse><path id="freepik--shadow--inject-7" d="M288.83,426.45l-40.95-23.64c-2-1.13-2-3,0-4.09L364,331.67a7.84,7.84,0,0,1,7.09,0l40.95,23.63c2,1.13,2,3,0,4.09L295.92,426.45A7.84,7.84,0,0,1,288.83,426.45Z" style="fill:#e0e0e0"></path></g><g id="freepik--code-box--inject-7"><g id="freepik--code-box--inject-7"><path d="M255.75,402.25l34.9,20.17a5,5,0,0,0,4.54,0l111.13-64.06a5,5,0,0,0,2.26-3.93V352.8a5,5,0,0,0-2.28-3.93l-35-20.12a5,5,0,0,0-4.54,0l-111,64a5,5,0,0,0-2.26,3.92v1.63A5.05,5.05,0,0,0,255.75,402.25Z" style="fill:#f0f0f0"></path><path d="M366.92,328.67c1.72-1,3.52-.42,5.25.59l33.25,19.12c1.72,1,1.73,2.62,0,3.62L296,415.06h0a6.26,6.26,0,0,1-6.24,0L256.5,395.94a2.09,2.09,0,0,1,0-3.62h0Z" style="fill:#fafafa"></path><path d="M256.49,394.74a1.22,1.22,0,0,1,.44-1.67l110.42-63.64c1.17-.68,2.53-.5,4.39.58L405,349.14a2,2,0,0,1,.75.67c.39.68-.4,1.23-.75,1.43L295.58,414.3a5.37,5.37,0,0,1-5.37,0l-33.28-19.12a1.1,1.1,0,0,1-.44-.44m-.76.44a2.08,2.08,0,0,0,.77.76l33.27,19.12a6.26,6.26,0,0,0,6.24,0L405.41,352c1.24-.71,1.59-1.73,1.08-2.62a2.82,2.82,0,0,0-1.07-1l-33.25-19.12c-1.73-1-3.53-1.59-5.25-.59L256.5,392.32a2.09,2.09,0,0,0-.77,2.86Z" style="fill:#e0e0e0"></path><path d="M255.72,392.76l.77-.44a2.09,2.09,0,0,0,0,3.62l33.27,19.12a6.11,6.11,0,0,0,3.12.83H293V423a4.63,4.63,0,0,1-2.32-.55l-34.9-20.16a5,5,0,0,1-2.28-3.92V396.7A5,5,0,0,1,255.72,392.76Z" style="fill:#e6e6e6"></path><path d="M288.22,396.09l11.9-1.32,4.35,2.51L281.53,400l4.59-13.26,4.38,2.53Z" style="fill:#e0e0e0"></path><path d="M313,381.82l-11.94,1.33-4.34-2.51L319.69,378l-4.58,13.26-4.38-2.53Z" style="fill:#e0e0e0"></path><path d="M322.77,365.15l45.89-26.49a3.64,3.64,0,0,1,3.29-.05c.89.51.85,1.36-.09,1.9L325.94,367a3.68,3.68,0,0,1-3.28.06C321.79,366.54,321.83,365.69,322.77,365.15Z" style="fill:#e0e0e0"></path><path d="M330.71,369.73l45.9-26.5a3.67,3.67,0,0,1,3.29-.05c.88.51.84,1.36-.09,1.9l-45.92,26.48a3.62,3.62,0,0,1-3.28.06C329.73,371.12,329.78,370.27,330.71,369.73Z" style="fill:#e0e0e0"></path><path d="M338.66,374.31l45.89-26.5a3.64,3.64,0,0,1,3.29-.05c.89.51.85,1.36-.08,1.9l-45.93,26.48a3.63,3.63,0,0,1-3.27.06C337.68,375.69,337.73,374.85,338.66,374.31Z" style="fill:#e0e0e0"></path></g></g><g id="freepik--Gears--inject-7"><g id="freepik--gears--inject-7"><path d="M352.57,111a2.61,2.61,0,0,1-.42-.08l-4.2-1.07a2.35,2.35,0,0,1-1.63-3.23L349.41,99a1.87,1.87,0,0,0-.41-1.7,13.84,13.84,0,0,1-1.14-1.48.69.69,0,0,0-.94-.29l-5.71,3.52a1.94,1.94,0,0,1-3.09-1.45l-.87-6.15a4.3,4.3,0,0,1,1.34-3.58l5.76-5a4.23,4.23,0,0,0,1.14-2.16,39.48,39.48,0,0,1,.84-4.17,1.09,1.09,0,0,0-.54-1.2l-3.24-1.5a2.54,2.54,0,0,1-1.35-1.47,2.57,2.57,0,0,1,.1-2l4.09-8.46A3.52,3.52,0,0,1,348.7,60l4.06.32a2.34,2.34,0,0,0,1.77-.84c1-1.36,2-2.67,3.11-3.88a3.79,3.79,0,0,0,.84-2.22l-.2-6A4.46,4.46,0,0,1,360,43.92l6.47-4.78a2.13,2.13,0,0,1,1.95-.37,2.09,2.09,0,0,1,1.3,1.5L371,45.05a.47.47,0,0,0,.24.33.57.57,0,0,0,.48,0,21.87,21.87,0,0,1,2.75-.82,3.19,3.19,0,0,0,1.83-1.27l4.2-7.45A3.25,3.25,0,0,1,384,34.35l4.2,1.07a2.39,2.39,0,0,1,1.57,1.23,2.44,2.44,0,0,1,.06,2l-3.09,7.64a1.84,1.84,0,0,0,.41,1.7,12.91,12.91,0,0,1,1.14,1.48.68.68,0,0,0,.94.29l5.71-3.52A1.94,1.94,0,0,1,398,47.69l.87,6.15a4.3,4.3,0,0,1-1.34,3.58l-5.76,5a4.12,4.12,0,0,0-1.14,2.16,40,40,0,0,1-.84,4.17,1.09,1.09,0,0,0,.54,1.2l3.24,1.5a2.57,2.57,0,0,1,1.24,3.47l-4.08,8.46a3.52,3.52,0,0,1-3.31,1.9L383.34,85a2.37,2.37,0,0,0-1.77.84c-1,1.36-2,2.66-3.12,3.88a3.85,3.85,0,0,0-.83,2.22l.2,6a4.45,4.45,0,0,1-1.67,3.45l-6.47,4.79a2,2,0,0,1-3.25-1.14l-1.29-4.78a.47.47,0,0,0-.24-.33.57.57,0,0,0-.48,0,21.87,21.87,0,0,1-2.75.82,3.3,3.3,0,0,0-1.84,1.27l-4.19,7.45A3.28,3.28,0,0,1,352.57,111Zm-5.09-17.47a2.67,2.67,0,0,1,2,1.23,10.14,10.14,0,0,0,1,1.25,3.76,3.76,0,0,1,.75,3.68l-3.09,7.65a.47.47,0,0,0,.34.67l4.19,1.07a1.33,1.33,0,0,0,1.37-.58l4.2-7.45a5.09,5.09,0,0,1,3.07-2.19,21.51,21.51,0,0,0,2.51-.75,2.46,2.46,0,0,1,2,.1,2.32,2.32,0,0,1,1.2,1.52l1.29,4.78c0,.13.08.19.1.2a.62.62,0,0,0,.19-.1L375,99.84a2.64,2.64,0,0,0,.89-1.85l-.19-6A5.65,5.65,0,0,1,377,88.41c1-1.17,2-2.43,3-3.73a4.22,4.22,0,0,1,3.46-1.62l4.06.32a1.66,1.66,0,0,0,1.45-.83l4.08-8.47a.61.61,0,0,0,0-.53.69.69,0,0,0-.36-.39l-3.24-1.5a3,3,0,0,1-1.58-3.4,38.58,38.58,0,0,0,.8-4A6,6,0,0,1,390.51,61l5.75-5A2.47,2.47,0,0,0,397,54.1h0L396.1,48a1.18,1.18,0,0,0-.05-.18s-.08,0-.16.09l-5.71,3.52a2.57,2.57,0,0,1-3.53-.87,9.93,9.93,0,0,0-1-1.25,3.74,3.74,0,0,1-.75-3.68L388,37.93a.51.51,0,0,0,0-.42.5.5,0,0,0-.34-.25l-4.2-1.07a1.33,1.33,0,0,0-1.36.58l-4.2,7.45a5.09,5.09,0,0,1-3.07,2.19,21.51,21.51,0,0,0-2.51.75,2.46,2.46,0,0,1-2-.1,2.32,2.32,0,0,1-1.2-1.52l-1.29-4.78a.53.53,0,0,0-.1-.2.83.83,0,0,0-.19.1l-6.48,4.79a2.6,2.6,0,0,0-.89,1.85l.19,6a5.63,5.63,0,0,1-1.31,3.54c-1,1.17-2,2.42-3,3.74a4.23,4.23,0,0,1-3.46,1.61l-4.06-.32a1.66,1.66,0,0,0-1.45.83L343,71.21a.69.69,0,0,0,0,.53.76.76,0,0,0,.36.39l3.25,1.5A3,3,0,0,1,348.17,77a35.79,35.79,0,0,0-.8,4,6,6,0,0,1-1.77,3.32l-5.77,5a2.47,2.47,0,0,0-.7,1.89l.87,6.15a.58.58,0,0,0,.05.18s.07,0,.16-.08l5.71-3.53A2.52,2.52,0,0,1,347.48,93.55Zm13.85-3.86a7.72,7.72,0,0,1-2.2-.55c-2.57-1.07-4.25-3.55-4.73-7-1.07-7.54,4-18,11.23-23.41,4-3,8.18-4,11.34-2.62,2.57,1.07,4.25,3.55,4.73,7,1.07,7.54-4,18-11.23,23.4h0C367.31,88.86,364.09,90,361.33,89.69Zm13.24-32.2c-2.28-.22-5,.75-7.81,2.81C360,65.29,355.3,75,356.28,81.91c.39,2.77,1.63,4.66,3.58,5.48,2.53,1.06,6,.19,9.48-2.39,6.76-5,11.46-14.7,10.48-21.62-.39-2.77-1.63-4.66-3.58-5.48A5.76,5.76,0,0,0,374.57,57.49Z" style="fill:#e0e0e0"></path><path d="M394.06,128.34l-.3-.05-2.78-.71a1.73,1.73,0,0,1-1.19-2.35l2-5.07a1.12,1.12,0,0,0-.24-1,7.79,7.79,0,0,1-.77-1c-.07-.1-.24-.26-.42-.14l-3.8,2.33a1.52,1.52,0,0,1-1.45.14,1.49,1.49,0,0,1-.82-1.2l-.58-4.09a3,3,0,0,1,.94-2.51l3.82-3.32a2.57,2.57,0,0,0,.71-1.34,25.14,25.14,0,0,1,.57-2.79.59.59,0,0,0-.28-.62l-2.16-1a1.9,1.9,0,0,1-1-1.06,1.87,1.87,0,0,1,.07-1.45l2.72-5.62a2.51,2.51,0,0,1,2.34-1.35l2.7.22a1.42,1.42,0,0,0,1-.5,30.85,30.85,0,0,1,2.08-2.58,2.39,2.39,0,0,0,.51-1.38l-.13-4a3.16,3.16,0,0,1,1.17-2.42l4.3-3.18a1.58,1.58,0,0,1,1.44-.26,1.56,1.56,0,0,1,.95,1.1l.86,3.18c.13.14.21.14.28.11a16,16,0,0,1,1.85-.55,2,2,0,0,0,1.12-.77l2.79-5A2.28,2.28,0,0,1,415,77.13l2.79.71a1.75,1.75,0,0,1,1.13.9,1.71,1.71,0,0,1,.05,1.45l-2.05,5.07a1.12,1.12,0,0,0,.24,1,7,7,0,0,1,.77,1,.31.31,0,0,0,.43.14l3.79-2.33a1.44,1.44,0,0,1,2.28,1.06L425,90.2a3,3,0,0,1-.94,2.51L420.2,96a2.64,2.64,0,0,0-.71,1.34,26.84,26.84,0,0,1-.56,2.78.59.59,0,0,0,.27.63l2.16,1a1.85,1.85,0,0,1,1,1.07,1.81,1.81,0,0,1-.07,1.44l-2.71,5.62a2.5,2.5,0,0,1-2.35,1.34l-2.7-.21a1.44,1.44,0,0,0-1,.5,30.85,30.85,0,0,1-2.08,2.58,2.46,2.46,0,0,0-.51,1.38l.13,4a3.14,3.14,0,0,1-1.17,2.42l-4.3,3.18a1.47,1.47,0,0,1-2.39-.84l-.86-3.17c-.13-.16-.21-.15-.28-.12a14.9,14.9,0,0,1-1.85.55,2,2,0,0,0-1.11.77l-2.79,5A2.34,2.34,0,0,1,394.06,128.34Zm-3.34-11.9a1.9,1.9,0,0,1,1.41.88,7.7,7.7,0,0,0,.63.82,2.65,2.65,0,0,1,.53,2.6l-2.05,5.08.12.25,2.79.71a.75.75,0,0,0,.74-.32l2.79-4.95a3.56,3.56,0,0,1,2.13-1.53,12.27,12.27,0,0,0,1.65-.49,1.77,1.77,0,0,1,1.46.08,1.7,1.7,0,0,1,.87,1.1l.85,3.17,4.26-3.19a1.6,1.6,0,0,0,.54-1.11l-.13-4a3.89,3.89,0,0,1,.91-2.46c.69-.78,1.35-1.61,2-2.47a3,3,0,0,1,2.43-1.13l2.7.21a1,1,0,0,0,.81-.47l2.71-5.62a.28.28,0,0,0,0-.23.31.31,0,0,0-.17-.18l-2.15-1a2.13,2.13,0,0,1-1.13-2.43,23.4,23.4,0,0,0,.53-2.62,4.15,4.15,0,0,1,1.23-2.29L423,91.53a1.47,1.47,0,0,0,.42-1.11h0l-.58-4.09-3.71,2.38a1.84,1.84,0,0,1-2.54-.61,5.74,5.74,0,0,0-.63-.82,2.65,2.65,0,0,1-.53-2.6l2.06-5.08.06-.2-.19-.05-2.79-.71a.71.71,0,0,0-.73.32l-2.79,5a3.62,3.62,0,0,1-2.14,1.53,12.27,12.27,0,0,0-1.65.49,1.78,1.78,0,0,1-1.45-.08,1.69,1.69,0,0,1-.88-1.1l-.85-3.18-4.26,3.2a1.64,1.64,0,0,0-.54,1.11l.13,4a3.89,3.89,0,0,1-.91,2.46c-.69.78-1.35,1.61-2,2.47a3,3,0,0,1-2.43,1.13l-2.69-.21a1,1,0,0,0-.82.47l-2.71,5.62a.29.29,0,0,0,0,.24.31.31,0,0,0,.16.17l2.15,1a2.14,2.14,0,0,1,1.14,2.43,23,23,0,0,0-.54,2.62,4.14,4.14,0,0,1-1.22,2.29l-3.83,3.32a1.47,1.47,0,0,0-.42,1.11l.58,4.09,3.71-2.38A1.83,1.83,0,0,1,390.72,116.44Zm9.16-2.26a5.32,5.32,0,0,1-1.5-.37,5.67,5.67,0,0,1-3.23-4.75c-.72-5.06,2.65-12.09,7.51-15.69,2.73-2,5.53-2.66,7.68-1.76a5.67,5.67,0,0,1,3.24,4.75c.71,5.06-2.66,12.09-7.52,15.69h0A9.28,9.28,0,0,1,399.88,114.18Zm8.8-21.39a7.8,7.8,0,0,0-5.09,1.84c-4.45,3.29-7.54,9.66-6.9,14.21a4.15,4.15,0,0,0,2.29,3.53c1.63.68,3.88.11,6.15-1.58h0c4.45-3.29,7.54-9.66,6.9-14.21a3.69,3.69,0,0,0-3.35-3.79Z" style="fill:#e0e0e0"></path></g></g><g id="freepik--code-icon--inject-7"><g id="freepik--code-icon--inject-7"><g id="freepik--speach-bubble--inject-7"><path d="M113,46.4,55.4,79.63a4.72,4.72,0,0,0-2.13,3.68v53.4a4.65,4.65,0,0,0,2.14,3.66l4.05,2.3a4.82,4.82,0,0,0,4.27,0l57.6-33.23a4.72,4.72,0,0,0,2.13-3.68V52.34a4.65,4.65,0,0,0-2.14-3.66l-4-2.3A4.76,4.76,0,0,0,113,46.4Z" style="fill:#FBDF98"></path><path d="M63.73,142.65a4.92,4.92,0,0,1-4.27,0l-4.05-2.31a4.61,4.61,0,0,1-2.14-3.65V83.31A4.41,4.41,0,0,1,54,81.14l8.28,4.79A4.29,4.29,0,0,0,61.6,88v53.39C61.6,142.65,62.48,143.37,63.73,142.65Z" style="opacity:0.2"></path><g style="opacity:0.2"><path d="M123.43,52c-.17-1.07-1-1.46-2.1-.85L63.73,84.34a4.27,4.27,0,0,0-1.5,1.59l-8.29-4.79a4.16,4.16,0,0,1,1.46-1.51L113,46.4a4.73,4.73,0,0,1,4.26,0l4,2.3A4.67,4.67,0,0,1,123.43,52Z" style="fill:#fff"></path></g><path d="M121.33,51.11,63.73,84.34A4.7,4.7,0,0,0,61.6,88v53.4c0,1.35.95,1.9,2.13,1.22l57.6-33.22a4.7,4.7,0,0,0,2.13-3.68V52.34C123.46,51,122.51,50.44,121.33,51.11Z" style="fill:#FBDF98"></path></g><g id="freepik----inject-7"><path d="M67.3,110.94a3.31,3.31,0,0,1,.24-1.32,8.66,8.66,0,0,1,.67-1.23l12.56-20.3a2.07,2.07,0,0,1,.2-.24l.15-.11a.36.36,0,0,1,.47,0,.87.87,0,0,1,.19.62v7.83a3.39,3.39,0,0,1-.37,1.63,9.37,9.37,0,0,1-.64,1.07l-5.49,8.45,5.49,2.14a2.46,2.46,0,0,1,.64.31c.24.15.37.55.37,1.19v7.83a2,2,0,0,1-.19.83,1.25,1.25,0,0,1-.47.57l-.15,0a.34.34,0,0,1-.2,0l-12.56-5.8a1.3,1.3,0,0,1-.91-1.5Z" style="fill:#fff"></path><path d="M94.68,76.53a5.87,5.87,0,0,1,.47-1.26,2.24,2.24,0,0,1,.91-1l4.21-2.43a.38.38,0,0,1,.49,0,.91.91,0,0,1,.2.64,2.31,2.31,0,0,1-.06.47L90.28,118.22a5.69,5.69,0,0,1-.44,1.22,2.29,2.29,0,0,1-.94,1l-4.11,2.37a.38.38,0,0,1-.49,0,.86.86,0,0,1-.2-.63,2.23,2.23,0,0,1,.06-.47Z" style="fill:#fff"></path><path d="M117.76,83.84a3.24,3.24,0,0,1-.24,1.32,9.21,9.21,0,0,1-.67,1.24l-12.56,20.3a1.44,1.44,0,0,1-.21.24,1.1,1.1,0,0,1-.14.11.36.36,0,0,1-.47,0,.82.82,0,0,1-.19-.62V98.58a3.28,3.28,0,0,1,.36-1.61,12.08,12.08,0,0,1,.65-1l5.49-8.49-5.49-2.09a2.09,2.09,0,0,1-.65-.33c-.24-.17-.36-.57-.36-1.22V76a1.84,1.84,0,0,1,.19-.83,1.17,1.17,0,0,1,.47-.56.35.35,0,0,1,.14-.06.37.37,0,0,1,.21,0l12.56,5.8a1.7,1.7,0,0,1,.67.46,1.63,1.63,0,0,1,.24,1Z" style="fill:#fff"></path></g></g></g><g id="freepik--window-icon--inject-7"><g id="freepik--Window--inject-7"><path d="M178.88,26.26V72.82a3.83,3.83,0,0,1-1.74,3l-38.77,22.4a1.05,1.05,0,0,1-.57.16.83.83,0,0,1-.22,0,.44.44,0,0,1-.15,0l-.15-.08a1.49,1.49,0,0,1-.46-.58,2,2,0,0,1-.18-.87V50.63a3.85,3.85,0,0,1,1.73-3l38.77-22.37a1.25,1.25,0,0,1,1.17-.15l.15.08h0a.63.63,0,0,1,.11.12l0,.06a.47.47,0,0,1,.06.09.88.88,0,0,1,.1.22.42.42,0,0,1,0,.16,0,0,0,0,1,0,0,.78.78,0,0,1,0,.16A1.5,1.5,0,0,1,178.88,26.26Z" style="fill:#fafafa"></path><path d="M177.91,25.64l.14,0,0,0h0l0,0h0l0,.06h0l.06.19v0l0,0h0v0a.91.91,0,0,1,0,.17V72.82a3.18,3.18,0,0,1-1.42,2.46l-38.77,22.4a.51.51,0,0,1-.27.09h0l-.09,0h0l-.07,0a1.21,1.21,0,0,1-.23-.33,1.53,1.53,0,0,1-.11-.6V50.63a3.25,3.25,0,0,1,1.42-2.47l38.77-22.37a.89.89,0,0,1,.46-.15m0-.62a1.59,1.59,0,0,0-.77.24L138.37,47.63a3.85,3.85,0,0,0-1.73,3V96.77a2,2,0,0,0,.18.87,1.49,1.49,0,0,0,.46.58l.15.08a.44.44,0,0,0,.15,0,.83.83,0,0,0,.22,0h0a1.11,1.11,0,0,0,.55-.16l38.77-22.4a3.83,3.83,0,0,0,1.74-3V26.26a1.5,1.5,0,0,0,0-.22.78.78,0,0,0,0-.16,0,0,0,0,0,0,0,.75.75,0,0,0,0-.16.88.88,0,0,0-.1-.22.47.47,0,0,0-.06-.09l0-.06a.63.63,0,0,0-.11-.12h0l-.15-.08a.87.87,0,0,0-.4-.09Z" style="fill:#e0e0e0"></path><path d="M178.31,25.11a1.25,1.25,0,0,0-1.17.15L138.37,47.63a3.85,3.85,0,0,0-1.73,3v5.65l-4.44-2.56V48.11a3.84,3.84,0,0,1,1.73-3L172.7,22.74a1.22,1.22,0,0,1,1.26-.1C174.27,22.83,177.94,24.92,178.31,25.11Z" style="fill:#37474f"></path><path d="M178.87,26.24c0-1.09-.78-1.53-1.73-1L138.37,47.63a3.83,3.83,0,0,0-1.73,3v5.66l42.23-24.37Z" style="fill:#455a64"></path><path d="M132.2,53.73V48.11a3.48,3.48,0,0,1,.53-1.73l4.43,2.53a3.5,3.5,0,0,0-.52,1.72v5.66Z" style="fill:#263238"></path><path d="M169.06,32.32a2.58,2.58,0,0,0-1,2.07c0,.83.44,1.25,1,.94a2.57,2.57,0,0,0,1-2.07C170,32.43,169.6,32,169.06,32.32Z" style="fill:#fafafa"></path><path d="M172.58,30.28a2.58,2.58,0,0,0-1,2.07c0,.83.44,1.25,1,.94a2.57,2.57,0,0,0,1-2.07C173.55,30.39,173.12,30,172.58,30.28Z" style="fill:#fafafa"></path><path d="M176.09,28.25a2.57,2.57,0,0,0-1,2.07c0,.83.43,1.25,1,.94a2.58,2.58,0,0,0,1-2.07C177.07,28.36,176.63,27.94,176.09,28.25Z" style="fill:#fafafa"></path><path d="M137.28,98.22l-.22-.12-4.13-2.38a1.39,1.39,0,0,1-.53-.59,2.06,2.06,0,0,1-.2-.91V53.72l4.44,2.56V96.77a2.39,2.39,0,0,0,.18.87A1.51,1.51,0,0,0,137.28,98.22Z" style="fill:#e0e0e0"></path><polygon points="175.47 53.02 140.05 73.47 140.05 57.76 175.47 37.31 175.47 53.02" style="fill:#e0e0e0"></polygon><polygon points="155.96 83.41 140.05 92.58 140.05 76.87 155.96 67.7 155.96 83.41" style="fill:#e0e0e0"></polygon><polygon points="175.47 71.99 159.56 81.16 159.56 65.45 175.47 56.28 175.47 71.99" style="fill:#e0e0e0"></polygon></g></g><g id="freepik--Device--inject-7"><g id="freepik--device--inject-7"><g id="freepik--Monitor--inject-7"><path d="M228,364.66l-31.23-18c-6.41-3.7-17.2-4.54-24.11-1.89l-18.54,7.14a106.51,106.51,0,0,0-23,13.11L112.2,379.84c-2.71,2.13-4,4.73-4,7.27,0,.71,0,3.58,0,4.31,0,2.87,1.74,5.65,5.12,7.6l31.23,18c6.41,3.7,16.81,3.7,23.22,0L228,382.26c3.22-1.86,4.81-4.3,4.8-6.73,0-.7,0-3.46,0-4.17C232.78,368.94,231.19,366.51,228,364.66Z" style="fill:#e6e6e6"></path><path d="M108.15,391.42c0,2.87,1.74,5.65,5.12,7.6l31.23,18a23.76,23.76,0,0,0,11.61,2.78v-4.46l-48-27.69C108.14,388.78,108.14,390.82,108.15,391.42Z" style="fill:#e0e0e0"></path><path d="M108.15,391.42c0,2.87,1.74,5.65,5.12,7.6l31.23,18a23.76,23.76,0,0,0,11.61,2.78v-4.46l-48-27.69C108.14,388.78,108.14,390.82,108.15,391.42Z" style="opacity:0.1"></path><path d="M172.64,344.74l-18.54,7.14a106.51,106.51,0,0,0-23,13.11L112.2,379.84c-5.82,4.58-5.34,11.29,1.07,15l31.23,18c6.41,3.7,16.81,3.7,23.22,0L228,378.07c6.41-3.71,6.41-9.71,0-13.41l-31.23-18C190.34,342.93,179.54,342.09,172.64,344.74Z" style="fill:#f0f0f0"></path><path d="M196.75,346.63c-6.41-3.7-17.2-4.54-24.11-1.89l-18.54,7.14a106.51,106.51,0,0,0-23,13.11L112.2,379.84c-2.71,2.13-4,4.73-4,7.27,0,.71,0,3.58,0,4.31,0,2.87,1.74,5.65,5.12,7.6l17.4,10.05v-4.18l83.5-48.2Z" style="opacity:0.1"></path><path d="M167.49,365.6c0-9.21,2.89-38.21,8.93-45l-19.33-2.14c-9.51,10-20.9,34.06-27.78,47.9,0,0,5.67,2.31,12.67,5.2s16.74,2.9,21.75,0a6.71,6.71,0,0,0,3.75-6Z" style="fill:#e0e0e0"></path><path d="M167.49,365.6c0-9.21,2.89-38.21,8.93-45l-19.33-2.14c-9.51,10-20.9,34.06-27.78,47.9,0,0,5.67,2.31,12.67,5.2s16.74,2.9,21.75,0a6.71,6.71,0,0,0,3.75-6Z" style="opacity:0.1"></path><path d="M163.88,321.26c3.75,1.55,9,1.55,11.66,0s2.68-4.57,0-6.74l-4.87-3.93a55.78,55.78,0,0,0-13.58,7.88Z" style="fill:#e0e0e0"></path><path d="M58.14,394.9a11,11,0,0,0,10-.18L302.16,259.56a11.34,11.34,0,0,0,5.14-8.9V34.38a11,11,0,0,0-4.82-8.72,11.06,11.06,0,0,0-10,.19L58.46,161a11.35,11.35,0,0,0-5.14,8.9V386.18A11,11,0,0,0,58.14,394.9Z" style="fill:#455a64"></path><path d="M68.1,394.71,302.16,259.56a11.37,11.37,0,0,0,5.14-8.9V34.38c0-3.28-2.3-4.61-5.14-3L68.1,166.56a11.35,11.35,0,0,0-5.14,8.9V391.74C63,395,65.26,396.35,68.1,394.71Z" style="fill:#37474f"></path><path d="M63,374.26v17.48c0,3.28,2.3,4.61,5.14,3L302.16,259.56a11.37,11.37,0,0,0,5.14-8.9V233.17Z" style="fill:#ebebeb"></path><path d="M69.75,358V177.75a7,7,0,0,1,3.17-5.47L297.34,42.69c1.74-1,3.16-.19,3.16,1.82V224.75a7,7,0,0,1-3.17,5.48L72.91,359.81C71.17,360.82,69.75,360,69.75,358Z" style="fill:#fff"></path><path d="M54.83,164.82l9.64,5.56A10.91,10.91,0,0,0,63,175.46V391.74c0,3,2,4.66,5.14,3a10.92,10.92,0,0,1-10,.18,9.9,9.9,0,0,1-4.83-8.1V169.9A10.72,10.72,0,0,1,54.83,164.82Z" style="fill:#263238"></path><path d="M182.29,315.12l11.63-6.67c1-.61,1.88-.18,1.88.95a4,4,0,0,1-1.88,3.13l-11.63,6.67c-1,.6-1.88.18-1.88-.95A4,4,0,0,1,182.29,315.12Z" style="fill:#FBDF98"></path></g></g></g><g id="freepik--window-2--inject-7"><g id="freepik--window--inject-7"><g id="freepik--window--inject-7"><path d="M336,361a1.61,1.61,0,0,1-.37,0,.77.77,0,0,1-.2-.07l-.15-.09-.18-.12a1.94,1.94,0,0,1-1.05-1.74V206.39c0-4.19,1.76-6.71,3.41-7.66L444.54,136.9a2.8,2.8,0,0,1,1.37-.42,1.36,1.36,0,0,1,.61.13.82.82,0,0,1,.23.13.8.8,0,0,1,.16.16l0,0,.06.05.06.1,0,.07,0,0a1.15,1.15,0,0,1,.14.32.88.88,0,0,1,.06.17l0,0,.07.21a.69.69,0,0,1,0,.22,2.63,2.63,0,0,1,0,.41V292.92a7.55,7.55,0,0,1-3.42,5.91l-103.45,59.8-3.44,2h-.07l-.06.06,0,0a1.8,1.8,0,0,1-.9.28Z" style="fill:#fafafa"></path><path d="M445.91,137a1,1,0,0,1,.41.09l.07,0,0,0,.07.05.09.12h0v0l.08.12a.52.52,0,0,1,.07.15l0,0,.1.3v0l0,0,0,.06a.34.34,0,0,1,0,.1c0,.12,0,.24,0,.37V292.92a7.07,7.07,0,0,1-3.15,5.45L340.3,358.18l-3.41,2h0l-.1.06-.1.05a1.33,1.33,0,0,1-.69.22h0l-.24,0-.07,0-.1-.06-.09-.05-.05,0,0,0,0,0a1.43,1.43,0,0,1-.78-1.28v-1.86h0V206.39c0-4,1.63-6.33,3.15-7.2L444.8,137.36a2.39,2.39,0,0,1,1.11-.36m0-1.05a3.28,3.28,0,0,0-1.63.5L337.22,198.27c-2,1.17-3.68,4-3.68,8.12V358.12h0v.8a2.5,2.5,0,0,0,1.33,2.21l.15.1.19.11a1.73,1.73,0,0,0,.32.11,2.42,2.42,0,0,0,.47.06h.05a2.44,2.44,0,0,0,1.17-.35l.09-.06h0l3.5-2,103.46-59.81a8.12,8.12,0,0,0,3.67-6.36V138.57c0-.16,0-.32,0-.46a1.86,1.86,0,0,0-.06-.34.09.09,0,0,0,0-.07,1.59,1.59,0,0,0-.09-.33,1.82,1.82,0,0,0-.22-.47.55.55,0,0,0-.12-.19.64.64,0,0,0-.1-.13,1.36,1.36,0,0,0-.24-.24l0,0a1.92,1.92,0,0,0-.31-.18,2,2,0,0,0-.84-.18Z" style="fill:#FBDF98"></path><path d="M446.75,136.13a2.65,2.65,0,0,0-2.47.32L337.22,198.27a8.14,8.14,0,0,0-3.68,6.37v7.12L328.85,209v-7a8.11,8.11,0,0,1,3.67-6.35L439.59,133.8a2.54,2.54,0,0,1,2.66-.22C442.92,134,446,135.72,446.75,136.13Z" style="fill:#FBDF98"></path><path d="M447.94,138.54c0-2.32-1.65-3.25-3.66-2.09L337.21,198.28a8.14,8.14,0,0,0-3.67,6.36v7.12l114.39-66Z" style="fill:#FBDF98"></path><g style="opacity:0.2"><path d="M444.27,136.45l-107,61.83a7.54,7.54,0,0,0-2.59,2.72L330,198.3a7.25,7.25,0,0,1,2.55-2.68l107.07-61.83a2.58,2.58,0,0,1,2.66-.22c.66.41,3.71,2.14,4.48,2.56A2.64,2.64,0,0,0,444.27,136.45Z" style="fill:#fff"></path></g><path d="M328.85,209V202A7.49,7.49,0,0,1,330,198.3l4.67,2.69a7.41,7.41,0,0,0-1.09,3.65v7.12Z" style="opacity:0.15"></path><path d="M432,147.16a3.72,3.72,0,0,0-1.56,3c0,1.15.7,1.68,1.56,1.18a3.74,3.74,0,0,0,1.56-3C433.56,147.19,432.86,146.66,432,147.16Z" style="fill:#fafafa"></path><path d="M437.61,143.91a3.74,3.74,0,0,0-1.56,3c0,1.15.7,1.67,1.56,1.18a3.74,3.74,0,0,0,1.56-3C439.17,143.94,438.47,143.41,437.61,143.91Z" style="fill:#fafafa"></path><path d="M443.22,140.67a3.72,3.72,0,0,0-1.56,3c0,1.15.7,1.68,1.56,1.18a3.72,3.72,0,0,0,1.56-3C444.78,140.7,444.08,140.17,443.22,140.67Z" style="fill:#fafafa"></path><path d="M334.86,361.15l-.19-.11-3.87-2.24a3.88,3.88,0,0,1-1.92-2.84,4.89,4.89,0,0,1,0-.54V209l4.69,2.75V358.92a2.41,2.41,0,0,0,1.14,2.09l.12.08s0,0,0,0Z" style="fill:#FBDF98"></path><path d="M334.86,361.15l-.19-.11-3.87-2.24a3.88,3.88,0,0,1-1.92-2.84,4.89,4.89,0,0,1,0-.54V209l4.69,2.75V358.92a2.41,2.41,0,0,0,1.14,2.09l.12.08s0,0,0,0Z" style="fill:#fff;opacity:0.5"></path></g><polygon points="366.07 206.68 339.02 222.3 339.02 214.03 366.07 198.41 366.07 206.68" style="fill:#FBDF98"></polygon><polygon points="368.66 215.97 339.11 233.03 339.11 228.72 368.66 211.65 368.66 215.97" style="fill:#455a64"></polygon><polygon points="405.94 194.44 376.39 211.5 376.39 207.19 405.94 190.13 405.94 194.44" style="fill:#e0e0e0"></polygon><polygon points="443.22 172.92 413.67 189.98 413.67 185.67 443.22 168.6 443.22 172.92" style="fill:#e0e0e0"></polygon><path d="M344.4,279.25a.66.66,0,0,1-.59-.34.68.68,0,0,1,.25-.93l5.88-3.39a.68.68,0,1,1,.68,1.17l-5.88,3.4A.72.72,0,0,1,344.4,279.25Zm-5.29-1.71a.68.68,0,0,1-.68-.68v-6.8a.68.68,0,0,1,1.36,0v6.8A.69.69,0,0,1,339.11,277.54Zm20.59-7.12a.71.71,0,0,1-.59-.34.69.69,0,0,1,.25-.93l5.89-3.4a.68.68,0,0,1,.68,1.18l-5.89,3.4A.67.67,0,0,1,359.7,270.42ZM375,261.58a.69.69,0,0,1-.59-.34.68.68,0,0,1,.25-.93l5.89-3.4a.68.68,0,0,1,.93.25.69.69,0,0,1-.25.93l-5.89,3.4A.69.69,0,0,1,375,261.58Zm-35.9-1.72a.67.67,0,0,1-.68-.68v-6.79a.68.68,0,0,1,1.36,0v6.79A.68.68,0,0,1,339.11,259.86Zm51.21-7.12a.66.66,0,0,1-.59-.34.68.68,0,0,1,.25-.93l5.88-3.4a.69.69,0,0,1,.93.25.68.68,0,0,1-.25.93l-5.88,3.4A.72.72,0,0,1,390.32,252.74Zm15.3-8.84a.67.67,0,0,1-.34-1.26l5.89-3.4a.68.68,0,0,1,.93.25.66.66,0,0,1-.25.92l-5.89,3.4A.58.58,0,0,1,405.62,243.9Zm-66.51-1.71a.68.68,0,0,1-.68-.68v-.18a.67.67,0,0,1,.34-.59l5.73-3.31a.66.66,0,0,1,.92.25.68.68,0,0,1-.24.93l-5.43,3.13A.69.69,0,0,1,339.11,242.19Zm81.82-7.12a.69.69,0,0,1-.59-.34.68.68,0,0,1,.25-.93l5.89-3.4a.68.68,0,0,1,.93.25.7.7,0,0,1-.25.93l-5.89,3.4A.69.69,0,0,1,420.93,235.07Zm-66.67-1.81a.66.66,0,0,1-.59-.34.68.68,0,0,1,.24-.93l5.89-3.4a.69.69,0,0,1,.93.25.68.68,0,0,1-.25.93l-5.89,3.4A.66.66,0,0,1,354.26,233.26Zm82-7a.66.66,0,0,1-.59-.34.68.68,0,0,1,.25-.93l5.54-3.2a.69.69,0,0,1,.68-.66.68.68,0,0,1,.68.68v.37a.68.68,0,0,1-.34.59l-5.88,3.4A.72.72,0,0,1,436.24,226.23Zm-66.68-1.81a.68.68,0,0,1-.34-1.27l5.89-3.39a.68.68,0,1,1,.68,1.17l-5.89,3.4A.69.69,0,0,1,369.56,224.42Zm15.31-8.83a.68.68,0,0,1-.59-.34.68.68,0,0,1,.25-.93l5.88-3.4a.68.68,0,1,1,.68,1.18l-5.88,3.4A.72.72,0,0,1,384.87,215.59Zm57.25-4a.69.69,0,0,1-.68-.68v-6.8a.68.68,0,0,1,1.36,0v6.8A.68.68,0,0,1,442.12,211.59Zm-41.94-4.84a.66.66,0,0,1-.59-.34.68.68,0,0,1,.24-.93l5.89-3.4a.68.68,0,0,1,.93.25.68.68,0,0,1-.25.93l-5.89,3.4A.66.66,0,0,1,400.18,206.75Zm15.3-8.84a.68.68,0,0,1-.34-1.27l5.89-3.4a.68.68,0,0,1,.68,1.18l-5.89,3.4A.69.69,0,0,1,415.48,197.91Zm26.64-4a.68.68,0,0,1-.68-.68v-6.8a.68.68,0,0,1,1.36,0v6.8A.67.67,0,0,1,442.12,193.91Zm-11.33-4.84a.67.67,0,0,1-.34-1.26l5.88-3.4a.68.68,0,1,1,.68,1.18L431.13,189A.62.62,0,0,1,430.79,189.07Z" style="fill:#e0e0e0"></path><path d="M339.11,242a.68.68,0,0,1-.67-.56.67.67,0,0,1,.54-.79l6.69-1.25a.68.68,0,0,1,.24,1.34L339.23,242Zm17.37-3.24a.67.67,0,0,1-.66-.55.68.68,0,0,1,.54-.8l6.68-1.24a.67.67,0,0,1,.79.54.68.68,0,0,1-.54.8l-6.68,1.24Zm17.38-3.23a.68.68,0,0,1-.12-1.35l6.68-1.24a.68.68,0,1,1,.25,1.33L374,235.53Zm17.37-3.24a.68.68,0,0,1-.12-1.34l6.68-1.25a.68.68,0,1,1,.25,1.34l-6.68,1.24Zm17.38-3.23a.68.68,0,0,1-.12-1.35l6.68-1.24a.68.68,0,1,1,.25,1.33l-6.68,1.25ZM426,225.83a.68.68,0,0,1-.67-.55.67.67,0,0,1,.54-.79l6.69-1.25a.68.68,0,1,1,.24,1.34l-6.68,1.24Z" style="fill:#e0e0e0"></path><path d="M339.11,282.31a.67.67,0,0,1-.49-.21.68.68,0,0,1,0-1l1.45-1.41a.68.68,0,1,1,.94,1l-1.45,1.41A.7.7,0,0,1,339.11,282.31Zm9.26-9a.71.71,0,0,1-.49-.2.68.68,0,0,1,0-1l4.88-4.73a.68.68,0,1,1,1,1l-4.89,4.73A.66.66,0,0,1,348.37,273.33ZM361.07,261a.67.67,0,0,1-.49-.21.68.68,0,0,1,0-1l4.89-4.73a.68.68,0,0,1,.94,1l-4.88,4.73A.7.7,0,0,1,361.07,261Zm12.69-12.3a.68.68,0,0,1-.47-1.17l4.88-4.73a.68.68,0,0,1,.95,1l-4.89,4.73A.66.66,0,0,1,373.76,248.74Zm12.7-12.29a.67.67,0,0,1-.49-.21.68.68,0,0,1,0-1l4.88-4.73a.69.69,0,0,1,1,0,.68.68,0,0,1,0,1l-4.88,4.73A.67.67,0,0,1,386.46,236.45Zm12.69-12.3a.66.66,0,0,1-.48-.21.67.67,0,0,1,0-1l4.88-4.73a.68.68,0,0,1,1,0,.67.67,0,0,1,0,1L399.63,224A.7.7,0,0,1,399.15,224.15Zm12.7-12.3a.67.67,0,0,1-.49-.21.68.68,0,0,1,0-1l4.88-4.73a.68.68,0,0,1,.94,1l-4.88,4.73A.66.66,0,0,1,411.85,211.85Zm12.7-12.29a.67.67,0,0,1-.49-.21.68.68,0,0,1,0-1l4.89-4.73a.68.68,0,1,1,.94,1L425,199.36A.67.67,0,0,1,424.55,199.56Zm12.69-12.3a.68.68,0,0,1-.47-1.17l4.88-4.73a.68.68,0,0,1,1,1l-4.89,4.73A.66.66,0,0,1,437.24,187.26Z" style="fill:#e0e0e0"></path><polygon points="442.12 246 339.02 305.52 339.02 291.22 442.12 231.69 442.12 246" style="fill:#FBDF98"></polygon><g style="opacity:0.2"><polygon points="442.12 246 339.02 305.52 339.02 291.22 442.12 231.69 442.12 246"></polygon></g><path d="M375.22,279.38l-29.41,17c-1.08.63-2,.34-2-.65v-.26a3.93,3.93,0,0,1,2-2.92l29.41-17c1.09-.63,2-.33,2,.65v.27A3.92,3.92,0,0,1,375.22,279.38Z" style="fill:#fafafa"></path><polygon points="442.12 269.15 339.02 328.68 339.02 314.37 442.12 254.84 442.12 269.15" style="fill:#FBDF98"></polygon><path d="M375.22,302.54l-29.41,17c-1.08.62-2,.33-2-.66v-.26a4,4,0,0,1,2-2.92l29.41-17c1.09-.62,2-.33,2,.65v.27A4,4,0,0,1,375.22,302.54Z" style="fill:#fafafa"></path><polygon points="442.12 292.3 339.02 351.83 339.02 337.52 442.12 277.99 442.12 292.3" style="fill:#FBDF98"></polygon><g style="opacity:0.5"><polygon points="442.12 292.3 339.02 351.83 339.02 337.52 442.12 277.99 442.12 292.3" style="fill:#fff"></polygon></g><path d="M375.22,325.69l-29.41,17c-1.08.62-2,.33-2-.65v-.27a4,4,0,0,1,2-2.92l29.41-17c1.09-.63,2-.34,2,.65v.26A3.94,3.94,0,0,1,375.22,325.69Z" style="fill:#fafafa"></path></g></g><g id="freepik--window-1--inject-7"><g id="freepik--window--inject-7"><g id="freepik--window--inject-7"><path d="M87,373.42a1.65,1.65,0,0,1-.38-.05.73.73,0,0,1-.21-.07l-.16-.09-.19-.12a2.07,2.07,0,0,1-1.1-1.83v-181c0-4.38,1.84-7,3.57-8L309.75,54.82a3,3,0,0,1,1.43-.44,1.37,1.37,0,0,1,.64.14,1.08,1.08,0,0,1,.24.13.51.51,0,0,1,.16.17l0,0,.06.05.06.1,0,.08,0,0a1.26,1.26,0,0,1,.16.33,1.25,1.25,0,0,0,.06.18l0,0,.08.22a1.06,1.06,0,0,1,0,.22c0,.13,0,.28,0,.43V239.49a7.87,7.87,0,0,1-3.57,6.17L91.73,371,88.14,373l-.07,0-.06.06,0,0a2,2,0,0,1-1,.29Z" style="fill:#fafafa"></path><path d="M311.18,54.93a.92.92,0,0,1,.43.09l.07,0,0,0,.06,0,.1.13h0v0l.09.12a.77.77,0,0,1,.07.16l0,0,.1.31v0l0,0,0,.07a.41.41,0,0,1,0,.1,2.56,2.56,0,0,1,0,.39V239.49a7.41,7.41,0,0,1-3.29,5.7L91.46,370.48l-3.55,2h0l-.11.06-.09.06a1.5,1.5,0,0,1-.73.22h0a1,1,0,0,1-.25,0l-.08,0-.1-.06-.09-.06,0,0-.05,0,0,0a1.51,1.51,0,0,1-.81-1.34v-1.94h0V190.22c0-4.15,1.7-6.6,3.29-7.52L310,55.3a2.5,2.5,0,0,1,1.16-.37m0-1.1a3.48,3.48,0,0,0-1.7.52L88.24,181.75c-2.11,1.22-3.84,4.2-3.84,8.47v182c0-1.68,0-1.8,0-1.8h0v.84a2.6,2.6,0,0,0,1.38,2.31l.16.11.2.11a1.28,1.28,0,0,0,.33.11A2.07,2.07,0,0,0,87,374h0a2.52,2.52,0,0,0,1.22-.37l.1-.06h0L92,371.43,309.48,246.14a8.48,8.48,0,0,0,3.83-6.65V56.56c0-.16,0-.33,0-.48a2,2,0,0,0-.06-.35.08.08,0,0,0,0-.08,1.69,1.69,0,0,0-.08-.34,1.83,1.83,0,0,0-.23-.49,1.13,1.13,0,0,0-.13-.2.49.49,0,0,0-.11-.14,1.48,1.48,0,0,0-.25-.25l0,0a1.5,1.5,0,0,0-.32-.19,2,2,0,0,0-.88-.19Z" style="fill:#FBDF98"></path><path d="M312.06,54a2.76,2.76,0,0,0-2.58.33L88.24,181.75a8.5,8.5,0,0,0-3.84,6.64v7.44L79.51,193v-7.35A8.46,8.46,0,0,1,83.33,179L304.58,51.58a2.67,2.67,0,0,1,2.78-.23C308.05,51.77,311.24,53.59,312.06,54Z" style="fill:#FBDF98"></path><path d="M313.31,56.53c0-2.42-1.73-3.4-3.83-2.18L88.24,181.75a8.48,8.48,0,0,0-3.84,6.64v7.44L313.31,64Z" style="fill:#FBDF98"></path><g style="opacity:0.2"><path d="M309.47,54.35,88.24,181.75a7.86,7.86,0,0,0-2.7,2.84l-4.87-2.82a7.67,7.67,0,0,1,2.67-2.8L304.58,51.57a2.66,2.66,0,0,1,2.78-.22c.69.42,3.87,2.23,4.68,2.66A2.79,2.79,0,0,0,309.47,54.35Z" style="fill:#fff"></path></g><path d="M79.5,193v-7.36a7.93,7.93,0,0,1,1.17-3.84l4.88,2.81a7.77,7.77,0,0,0-1.14,3.81v7.44Z" style="opacity:0.15"></path><path d="M296.66,65.53A3.9,3.9,0,0,0,295,68.64c0,1.2.73,1.75,1.63,1.23a3.9,3.9,0,0,0,1.63-3.11C298.29,65.56,297.56,65,296.66,65.53Z" style="fill:#fafafa"></path><path d="M302.52,62.14a3.9,3.9,0,0,0-1.63,3.11c0,1.2.73,1.75,1.63,1.23a3.89,3.89,0,0,0,1.62-3.11C304.14,62.17,303.42,61.62,302.52,62.14Z" style="fill:#fafafa"></path><path d="M308.38,58.75a3.9,3.9,0,0,0-1.63,3.11c0,1.2.73,1.75,1.63,1.23A3.92,3.92,0,0,0,310,60C310,58.78,309.27,58.23,308.38,58.75Z" style="fill:#fafafa"></path><path d="M85.78,373.58l-.2-.11-4-2.34a4,4,0,0,1-2-3,3.43,3.43,0,0,1,0-.56V193l4.9,2.87V371.26a2.5,2.5,0,0,0,1.2,2.17.34.34,0,0,0,.12.09s0,0,0,0Z" style="fill:#FBDF98"></path><path d="M85.78,373.58l-.2-.11-4-2.34a4,4,0,0,1-2-3,3.43,3.43,0,0,1,0-.56V193l4.9,2.87V371.26a2.5,2.5,0,0,0,1.2,2.17.34.34,0,0,0,.12.09s0,0,0,0Z" style="fill:#fff;opacity:0.5"></path></g><polygon points="127.38 191.66 96.86 209.28 96.86 200.49 127.38 182.87 127.38 191.66" style="fill:#FBDF98"></polygon><polygon points="247.17 122.5 227.35 133.94 227.35 125.15 247.17 113.71 247.17 122.5" style="fill:#455a64"></polygon><polygon points="274.01 107.01 254.19 118.45 254.19 109.66 274.01 98.22 274.01 107.01" style="fill:#e0e0e0"></polygon><polygon points="300.85 91.51 281.03 102.95 281.03 94.16 300.85 82.72 300.85 91.51" style="fill:#e0e0e0"></polygon><path d="M298.63,160.66a.5.5,0,0,1-.44-.25.51.51,0,0,1,.19-.7l1.95-1.13v-2.27a.52.52,0,0,1,1,0v2.56a.51.51,0,0,1-.26.44l-2.21,1.28A.48.48,0,0,1,298.63,160.66Z" style="fill:#e0e0e0"></path><path d="M106,271.85a.51.51,0,0,1-.25-1l4.35-2.52a.51.51,0,0,1,.7.19.52.52,0,0,1-.18.7l-4.36,2.51A.48.48,0,0,1,106,271.85Zm11.33-6.54a.51.51,0,0,1-.25-.95l4.35-2.52a.51.51,0,0,1,.7.19.52.52,0,0,1-.18.7l-4.36,2.51A.48.48,0,0,1,117.37,265.31Zm11.33-6.54a.5.5,0,0,1-.44-.25.51.51,0,0,1,.18-.7l4.36-2.52a.51.51,0,1,1,.51.89L129,258.7A.48.48,0,0,1,128.7,258.77ZM140,252.23a.49.49,0,0,1-.44-.26.51.51,0,0,1,.18-.69l4.36-2.52a.51.51,0,0,1,.51.89l-4.35,2.51A.51.51,0,0,1,140,252.23Zm11.33-6.54a.49.49,0,0,1-.44-.26.51.51,0,0,1,.18-.7l4.36-2.51a.51.51,0,1,1,.51.89l-4.36,2.51A.45.45,0,0,1,151.36,245.69Zm11.33-6.54a.52.52,0,0,1-.45-.26.52.52,0,0,1,.19-.7l4.36-2.51a.51.51,0,0,1,.7.19.52.52,0,0,1-.19.7l-4.36,2.51A.47.47,0,0,1,162.69,239.15ZM174,232.61a.52.52,0,0,1-.45-.26.52.52,0,0,1,.19-.7l4.36-2.51a.51.51,0,1,1,.51.88l-4.36,2.52A.47.47,0,0,1,174,232.61Zm11.33-6.54a.52.52,0,0,1-.45-.26.52.52,0,0,1,.19-.7l4.36-2.51a.51.51,0,0,1,.51.88L185.6,226A.47.47,0,0,1,185.35,226.07Zm11.32-6.54a.5.5,0,0,1-.44-.26.51.51,0,0,1,.19-.7l4.35-2.51a.51.51,0,1,1,.52.88l-4.36,2.52A.48.48,0,0,1,196.67,219.53ZM208,213a.52.52,0,0,1-.44-.26.51.51,0,0,1,.19-.7l4.35-2.51a.51.51,0,1,1,.52.88l-4.36,2.52A.59.59,0,0,1,208,213Zm11.33-6.54a.51.51,0,0,1-.44-.26.52.52,0,0,1,.18-.7l4.36-2.51a.51.51,0,0,1,.7.18.51.51,0,0,1-.19.7l-4.35,2.52A.59.59,0,0,1,219.33,206.45Zm11.33-6.54a.51.51,0,0,1-.44-.26.51.51,0,0,1,.18-.7l4.36-2.52a.53.53,0,0,1,.7.19.51.51,0,0,1-.19.7l-4.35,2.52A.63.63,0,0,1,230.66,199.91ZM242,193.36a.5.5,0,0,1-.44-.25.51.51,0,0,1,.18-.7l4.36-2.52a.53.53,0,0,1,.7.19.51.51,0,0,1-.19.7l-4.36,2.52A.54.54,0,0,1,242,193.36Zm11.33-6.54a.53.53,0,0,1-.45-.25.52.52,0,0,1,.19-.7l4.36-2.52a.51.51,0,0,1,.51.89l-4.36,2.52A.57.57,0,0,1,253.32,186.82Zm11.33-6.54a.53.53,0,0,1-.45-.25.52.52,0,0,1,.19-.7l4.36-2.52a.51.51,0,0,1,.51.89l-4.36,2.52A.57.57,0,0,1,264.65,180.28ZM276,173.74a.52.52,0,0,1-.44-.25.51.51,0,0,1,.19-.7l4.36-2.52a.51.51,0,0,1,.51.89l-4.36,2.52A.58.58,0,0,1,276,173.74Zm11.33-6.54a.51.51,0,0,1-.25-.95l4.35-2.52a.51.51,0,0,1,.7.19.52.52,0,0,1-.18.7l-4.36,2.51A.48.48,0,0,1,287.3,167.2Z" style="fill:#e0e0e0"></path><path d="M96.86,277.16a.59.59,0,0,1-.26-.07.5.5,0,0,1-.25-.45v-2.55a.5.5,0,0,1,.51-.51.51.51,0,0,1,.51.51v1.67l1.45-.84a.51.51,0,1,1,.51.89l-2.22,1.28A.59.59,0,0,1,96.86,277.16Z" style="fill:#e0e0e0"></path><path d="M96.86,266.07a.51.51,0,0,1-.51-.51v-5.34a.51.51,0,0,1,.51-.51.51.51,0,0,1,.51.51v5.34A.51.51,0,0,1,96.86,266.07Zm0-13.86a.51.51,0,0,1-.51-.52v-5.33a.51.51,0,0,1,.51-.51.51.51,0,0,1,.51.51v5.33A.51.51,0,0,1,96.86,252.21Zm0-13.87a.51.51,0,0,1-.51-.51V232.5a.51.51,0,0,1,.51-.51.51.51,0,0,1,.51.51v5.33A.51.51,0,0,1,96.86,238.34Z" style="fill:#e0e0e0"></path><path d="M96.86,224.48a.51.51,0,0,1-.51-.51v-2.56a.5.5,0,0,1,.25-.44l2.22-1.28a.51.51,0,0,1,.7.19.51.51,0,0,1-.19.69l-2,1.14V224A.51.51,0,0,1,96.86,224.48Z" style="fill:#e0e0e0"></path><path d="M106,216.62a.5.5,0,0,1-.44-.26.51.51,0,0,1,.19-.7l4.35-2.51a.51.51,0,0,1,.52.88l-4.36,2.52A.48.48,0,0,1,106,216.62Zm11.33-6.54a.5.5,0,0,1-.44-.26.51.51,0,0,1,.19-.7l4.35-2.51a.51.51,0,0,1,.7.18.51.51,0,0,1-.19.7L117.63,210A.59.59,0,0,1,117.37,210.08Zm11.33-6.54a.49.49,0,0,1-.44-.26.52.52,0,0,1,.18-.7l4.36-2.51a.51.51,0,0,1,.7.18.51.51,0,0,1-.19.7L129,203.47A.59.59,0,0,1,128.7,203.54ZM140,197a.51.51,0,0,1-.44-.26.52.52,0,0,1,.18-.7l4.36-2.51a.51.51,0,0,1,.7.18.51.51,0,0,1-.19.7l-4.35,2.52A.63.63,0,0,1,140,197Zm11.33-6.54a.54.54,0,0,1-.45-.26.52.52,0,0,1,.19-.7l4.36-2.52a.52.52,0,0,1,.7.19.51.51,0,0,1-.19.7l-4.36,2.52A.59.59,0,0,1,151.36,190.46Zm11.33-6.54a.54.54,0,0,1-.45-.26.52.52,0,0,1,.19-.7l4.36-2.52a.51.51,0,0,1,.51.89l-4.36,2.52A.59.59,0,0,1,162.69,183.92ZM174,177.37a.53.53,0,0,1-.45-.25.52.52,0,0,1,.19-.7l4.36-2.52a.51.51,0,1,1,.51.89l-4.36,2.52A.57.57,0,0,1,174,177.37Zm11.32-6.54a.52.52,0,0,1-.44-.25.51.51,0,0,1,.19-.7l4.36-2.52a.51.51,0,0,1,.51.89l-4.36,2.52A.58.58,0,0,1,185.34,170.83Zm11.33-6.54a.51.51,0,0,1-.25-.95l4.35-2.52a.51.51,0,0,1,.7.19.51.51,0,0,1-.18.7l-4.36,2.51A.48.48,0,0,1,196.67,164.29ZM208,157.75a.51.51,0,0,1-.25-.95l4.35-2.52a.51.51,0,0,1,.51.89l-4.35,2.51A.48.48,0,0,1,208,157.75Zm11.33-6.54a.5.5,0,0,1-.44-.25.51.51,0,0,1,.18-.7l4.36-2.52a.51.51,0,1,1,.51.89l-4.35,2.51A.48.48,0,0,1,219.33,151.21Zm11.33-6.54a.5.5,0,0,1-.44-.25.51.51,0,0,1,.18-.7l4.36-2.52a.51.51,0,0,1,.51.89l-4.35,2.51A.51.51,0,0,1,230.66,144.67ZM242,138.13a.52.52,0,0,1-.45-.26.51.51,0,0,1,.19-.69l4.36-2.52a.51.51,0,0,1,.51.89l-4.36,2.51A.47.47,0,0,1,242,138.13Zm11.33-6.54a.52.52,0,0,1-.45-.26.52.52,0,0,1,.19-.7l4.36-2.51a.51.51,0,0,1,.7.19.52.52,0,0,1-.19.7l-4.36,2.51A.47.47,0,0,1,253.32,131.59Zm11.33-6.54a.52.52,0,0,1-.45-.26.52.52,0,0,1,.19-.7l4.36-2.51a.51.51,0,0,1,.7.19.52.52,0,0,1-.19.7L264.9,125A.47.47,0,0,1,264.65,125.05ZM276,118.51a.51.51,0,0,1-.25-1l4.36-2.51a.51.51,0,0,1,.51.88l-4.36,2.52A.48.48,0,0,1,276,118.51ZM287.3,112a.5.5,0,0,1-.44-.26.51.51,0,0,1,.19-.7l4.35-2.51a.51.51,0,1,1,.52.88l-4.36,2.52A.48.48,0,0,1,287.3,112Z" style="fill:#e0e0e0"></path><path d="M300.85,106.71a.52.52,0,0,1-.52-.52v-1.67l-1.44.84a.51.51,0,1,1-.51-.89l2.21-1.28a.52.52,0,0,1,.51,0,.52.52,0,0,1,.26.45v2.55A.51.51,0,0,1,300.85,106.71Z" style="fill:#e0e0e0"></path><path d="M300.85,148.3a.52.52,0,0,1-.52-.52v-5.33a.52.52,0,0,1,1,0v5.33A.51.51,0,0,1,300.85,148.3Zm0-13.87a.51.51,0,0,1-.52-.51v-5.33a.52.52,0,0,1,1,0v5.33A.51.51,0,0,1,300.85,134.43Zm0-13.86a.51.51,0,0,1-.52-.51v-5.34a.52.52,0,0,1,1,0v5.34A.51.51,0,0,1,300.85,120.57Z" style="fill:#e0e0e0"></path><path d="M96.86,221.92a.51.51,0,0,1-.15-1l4.89-1.5a.51.51,0,0,1,.3,1L97,221.9Zm12.71-3.9a.51.51,0,0,1-.49-.36.52.52,0,0,1,.34-.64l4.89-1.5a.52.52,0,0,1,.64.34.51.51,0,0,1-.34.64l-4.89,1.5A.39.39,0,0,1,109.57,218Zm12.71-3.89a.51.51,0,0,1-.15-1l4.89-1.5a.51.51,0,0,1,.64.34.5.5,0,0,1-.34.63l-4.89,1.5A.4.4,0,0,1,122.28,214.13Zm12.72-3.9a.51.51,0,0,1-.15-1l4.89-1.5a.51.51,0,0,1,.3,1l-4.89,1.5Zm12.71-3.9a.51.51,0,0,1-.15-1l4.89-1.5a.51.51,0,1,1,.3,1l-4.89,1.5Zm12.71-3.9a.51.51,0,0,1-.15-1l4.89-1.5a.52.52,0,0,1,.64.34.51.51,0,0,1-.34.64l-4.89,1.5A.39.39,0,0,1,160.42,202.43Zm12.72-3.89a.53.53,0,0,1-.49-.36.51.51,0,0,1,.34-.64l4.89-1.5a.51.51,0,1,1,.3,1l-4.89,1.5A.4.4,0,0,1,173.14,198.54Zm12.71-3.9a.51.51,0,0,1-.15-1l4.89-1.5a.51.51,0,0,1,.3,1l-4.89,1.5Zm12.71-3.9a.51.51,0,0,1-.15-1l4.89-1.5a.51.51,0,0,1,.3,1l-4.89,1.5Zm12.72-3.9a.51.51,0,0,1-.49-.36.52.52,0,0,1,.34-.64l4.89-1.5a.51.51,0,0,1,.3,1l-4.89,1.5A.39.39,0,0,1,211.28,186.84ZM224,183a.52.52,0,0,1-.15-1l4.89-1.5a.51.51,0,1,1,.3,1l-4.89,1.5A.4.4,0,0,1,224,183Zm12.72-3.9a.51.51,0,0,1-.15-1l4.88-1.5a.51.51,0,0,1,.64.34.5.5,0,0,1-.33.64L236.86,179Zm12.71-3.9a.51.51,0,0,1-.15-1l4.89-1.5a.51.51,0,1,1,.3,1l-4.89,1.5Zm12.71-3.9a.51.51,0,0,1-.15-1l4.89-1.5a.51.51,0,0,1,.3,1l-4.89,1.5Zm12.71-3.9a.5.5,0,0,1-.48-.36.51.51,0,0,1,.33-.64l4.9-1.5a.51.51,0,0,1,.29,1l-4.88,1.5A.47.47,0,0,1,274.84,167.35Zm12.72-3.89a.52.52,0,0,1-.49-.37.5.5,0,0,1,.34-.63l4.89-1.5a.51.51,0,0,1,.64.34.5.5,0,0,1-.34.63l-4.89,1.5Zm12.71-3.9a.51.51,0,0,1-.15-1l.58-.18a.51.51,0,0,1,.3,1l-.58.18Z" style="fill:#e0e0e0"></path><path d="M96.86,277.16a.53.53,0,0,1-.39-.18.5.5,0,0,1,.06-.72l1.16-1a.51.51,0,1,1,.66.78l-1.16,1A.5.5,0,0,1,96.86,277.16Zm7.4-6.28a.51.51,0,0,1-.33-.9l3.9-3.31a.5.5,0,0,1,.72.06.51.51,0,0,1-.06.72l-3.9,3.31A.5.5,0,0,1,104.26,270.88Zm10.14-8.6a.52.52,0,0,1-.33-.91l3.9-3.3a.5.5,0,0,1,.72.06.51.51,0,0,1-.06.72l-3.9,3.3A.46.46,0,0,1,114.4,262.28Zm10.14-8.6a.52.52,0,0,1-.33-.91l3.9-3.3a.51.51,0,0,1,.72.05.5.5,0,0,1-.06.72l-3.9,3.31A.51.51,0,0,1,124.54,253.68Zm10.14-8.61a.49.49,0,0,1-.38-.18.51.51,0,0,1,0-.72l3.9-3.31a.52.52,0,0,1,.72.06.51.51,0,0,1-.05.72L135,245A.54.54,0,0,1,134.68,245.07Zm10.15-8.6a.5.5,0,0,1-.39-.18.51.51,0,0,1,.05-.72l3.91-3.31a.51.51,0,0,1,.66.78l-3.9,3.31A.54.54,0,0,1,144.83,236.47Zm10.14-8.6a.51.51,0,0,1-.33-.9l3.9-3.31a.51.51,0,0,1,.66.78l-3.9,3.31A.54.54,0,0,1,155,227.87Zm10.14-8.6a.5.5,0,0,1-.39-.18.51.51,0,0,1,.06-.72l3.9-3.31a.51.51,0,0,1,.66.78l-3.9,3.31A.52.52,0,0,1,165.11,219.27Zm10.14-8.6a.51.51,0,0,1-.33-.9l3.9-3.31a.51.51,0,0,1,.66.78l-3.9,3.31A.52.52,0,0,1,175.25,210.67Zm10.14-8.6a.51.51,0,0,1-.33-.9l3.9-3.31a.51.51,0,1,1,.66.78l-3.9,3.31A.5.5,0,0,1,185.39,202.07Zm10.14-8.6a.51.51,0,0,1-.33-.9l3.9-3.31a.51.51,0,0,1,.66.78l-3.9,3.3A.46.46,0,0,1,195.53,193.47Zm10.14-8.6a.57.57,0,0,1-.39-.18.52.52,0,0,1,.06-.72l3.9-3.31a.5.5,0,0,1,.72.06.51.51,0,0,1-.05.72l-3.9,3.3A.5.5,0,0,1,205.67,184.87Zm10.14-8.61a.49.49,0,0,1-.38-.18.51.51,0,0,1,0-.72l3.9-3.3a.51.51,0,0,1,.72.05.52.52,0,0,1,0,.73l-3.9,3.3A.54.54,0,0,1,215.81,176.26Zm10.15-8.6a.51.51,0,0,1-.33-.9l3.9-3.31a.51.51,0,0,1,.66.78l-3.9,3.31A.54.54,0,0,1,226,167.66Zm10.14-8.6a.51.51,0,0,1-.33-.9l3.9-3.31a.51.51,0,1,1,.66.78l-3.9,3.31A.52.52,0,0,1,236.1,159.06Zm10.14-8.6a.5.5,0,0,1-.39-.18.51.51,0,0,1,.06-.72l3.9-3.31a.51.51,0,0,1,.66.78l-3.9,3.31A.52.52,0,0,1,246.24,150.46Zm10.14-8.6a.51.51,0,0,1-.33-.9l3.9-3.31a.51.51,0,0,1,.66.78l-3.9,3.31A.52.52,0,0,1,256.38,141.86Zm10.14-8.6a.51.51,0,0,1-.33-.9l3.9-3.31a.51.51,0,0,1,.66.78l-3.9,3.31A.5.5,0,0,1,266.52,133.26Zm10.14-8.6a.51.51,0,0,1-.33-.9l3.9-3.31a.51.51,0,0,1,.72.06.5.5,0,0,1-.06.72l-3.9,3.31A.5.5,0,0,1,276.66,124.66Zm10.14-8.6a.51.51,0,0,1-.33-.9l3.9-3.31a.5.5,0,0,1,.72.06.51.51,0,0,1,0,.72l-3.9,3.31A.54.54,0,0,1,286.8,116.06Zm10.15-8.6a.53.53,0,0,1-.39-.18.52.52,0,0,1,.05-.73l3.9-3.3a.51.51,0,0,1,.73.06.52.52,0,0,1-.06.72l-3.9,3.3A.5.5,0,0,1,297,107.46Z" style="fill:#e0e0e0"></path><polygon points="300.85 241.24 96.71 359.1 96.71 353.95 300.85 236.09 300.85 241.24" style="fill:#e0e0e0"></polygon><polygon points="153.58 312.78 96.71 345.61 96.71 287.2 153.58 254.36 153.58 312.78" style="fill:#FBDF98"></polygon><g style="opacity:0.2"><polygon points="153.69 312.69 96.86 345.51 96.86 287.13 153.69 254.32 153.69 312.69"></polygon></g><path d="M137.27,272.83,102,293.17c-.57.33-1,0-1-.77v-.21a2.47,2.47,0,0,1,1-2l35.24-20.35c.57-.32,1,0,1,.78v.21A2.47,2.47,0,0,1,137.27,272.83Z" style="fill:#fafafa"></path><path d="M128.89,320.94l-27.1,15.64c-.44.26-.79,0-.79-.6v-.15a1.89,1.89,0,0,1,.79-1.52l27.1-15.64c.43-.25.79,0,.79.6v.16A1.91,1.91,0,0,1,128.89,320.94Z" style="fill:#FBDF98"></path><path d="M101.4,301.32l47.75-27.57a1.06,1.06,0,0,0,.4-.84c0-.34-.18-.51-.4-.39L101.4,300.09a1.07,1.07,0,0,0-.4.85C101,301.27,101.18,301.45,101.4,301.32ZM149.15,277,101.4,304.59a1.07,1.07,0,0,0-.4.85c0,.33.18.5.4.38l47.75-27.57a1.07,1.07,0,0,0,.4-.85C149.55,277.07,149.37,276.9,149.15,277Zm0,4.5L101.4,309.09a1.07,1.07,0,0,0-.4.85c0,.33.18.5.4.38l47.75-27.57a1.07,1.07,0,0,0,.4-.85C149.55,281.57,149.37,281.4,149.15,281.52Zm-47.75,33.3,14.85-8.58a1,1,0,0,0,.4-.84c0-.34-.18-.51-.4-.38l-14.85,8.57a1.06,1.06,0,0,0-.4.84C101,314.77,101.18,314.94,101.4,314.82ZM149.15,295,101.4,322.61a1,1,0,0,0-.4.84c0,.34.18.51.4.38l47.75-27.57a1,1,0,0,0,.4-.84C149.55,295.08,149.37,294.91,149.15,295Zm-24,18.37-23.73,13.7a1,1,0,0,0-.4.84c0,.34.18.51.4.38l23.73-13.7a1.07,1.07,0,0,0,.39-.84C125.52,313.45,125.34,313.28,125.13,313.41Z" style="fill:#FBDF98"></path><g style="opacity:0.30000000000000004"><path d="M101.4,301.32l47.75-27.57a1.06,1.06,0,0,0,.4-.84c0-.34-.18-.51-.4-.39L101.4,300.09a1.07,1.07,0,0,0-.4.85C101,301.27,101.18,301.45,101.4,301.32ZM149.15,277,101.4,304.59a1.07,1.07,0,0,0-.4.85c0,.33.18.5.4.38l47.75-27.57a1.07,1.07,0,0,0,.4-.85C149.55,277.07,149.37,276.9,149.15,277Zm0,4.5L101.4,309.09a1.07,1.07,0,0,0-.4.85c0,.33.18.5.4.38l47.75-27.57a1.07,1.07,0,0,0,.4-.85C149.55,281.57,149.37,281.4,149.15,281.52Zm-47.75,33.3,14.85-8.58a1,1,0,0,0,.4-.84c0-.34-.18-.51-.4-.38l-14.85,8.57a1.06,1.06,0,0,0-.4.84C101,314.77,101.18,314.94,101.4,314.82ZM149.15,295,101.4,322.61a1,1,0,0,0-.4.84c0,.34.18.51.4.38l47.75-27.57a1,1,0,0,0,.4-.84C149.55,295.08,149.37,294.91,149.15,295Zm-24,18.37-23.73,13.7a1,1,0,0,0-.4.84c0,.34.18.51.4.38l23.73-13.7a1.07,1.07,0,0,0,.39-.84C125.52,313.45,125.34,313.28,125.13,313.41Z" style="fill:#fff"></path></g><polygon points="227.27 270.21 170.44 303.03 170.44 244.65 227.27 211.84 227.27 270.21" style="fill:#FBDF98"></polygon><path d="M210.85,230.35l-35.24,20.34c-.57.33-1,0-1-.78v-.2a2.47,2.47,0,0,1,1-2l35.24-20.35c.57-.32,1,0,1,.78v.21A2.47,2.47,0,0,1,210.85,230.35Z" style="fill:#fafafa"></path><path d="M202.46,278.46,175.37,294.1c-.44.25-.79,0-.79-.6v-.15a1.89,1.89,0,0,1,.79-1.52l27.09-15.64c.44-.25.8,0,.8.6v.15A1.9,1.9,0,0,1,202.46,278.46Z" style="fill:#455a64"></path><g style="opacity:0.5"><path d="M222.73,231.27,175,258.84c-.22.13-.39,0-.39-.38a1.06,1.06,0,0,1,.39-.85L222.73,230c.22-.12.4.05.4.38A1.07,1.07,0,0,1,222.73,231.27Z" style="fill:#fff"></path></g><g style="opacity:0.5"><path d="M222.73,235.77,175,263.34c-.22.12-.39,0-.39-.39a1.06,1.06,0,0,1,.39-.84l47.76-27.57c.22-.13.4.05.4.38A1.07,1.07,0,0,1,222.73,235.77Z" style="fill:#fff"></path></g><g style="opacity:0.5"><path d="M222.73,240.27,175,267.84c-.22.12-.39,0-.39-.39a1.06,1.06,0,0,1,.39-.84L222.73,239c.22-.13.4.05.4.38A1.07,1.07,0,0,1,222.73,240.27Z" style="fill:#fff"></path></g><g style="opacity:0.5"><path d="M189.83,263.76,175,272.34c-.22.12-.39,0-.39-.39a1.06,1.06,0,0,1,.39-.84l14.86-8.57c.22-.13.39,0,.39.38A1,1,0,0,1,189.83,263.76Z" style="fill:#fff"></path></g><g style="opacity:0.5"><path d="M222.73,253.78,175,281.35c-.22.13-.39,0-.39-.38a1,1,0,0,1,.39-.84l47.76-27.57c.22-.13.4,0,.4.38A1,1,0,0,1,222.73,253.78Z" style="fill:#fff"></path></g><g style="opacity:0.5"><path d="M198.7,272.15,175,285.85c-.22.13-.39,0-.39-.38a1,1,0,0,1,.39-.84l23.73-13.7c.22-.13.4,0,.4.38A1,1,0,0,1,198.7,272.15Z" style="fill:#fff"></path></g><polygon points="300.85 227.75 243.97 260.59 243.97 202.17 300.85 169.34 300.85 227.75" style="fill:#FBDF98"></polygon><g style="opacity:0.5"><polygon points="300.85 227.73 244.01 260.55 244.01 202.17 300.85 169.36 300.85 227.73" style="fill:#fff"></polygon></g><path d="M284.43,187.87l-35.24,20.34c-.57.33-1,0-1-.78v-.2a2.47,2.47,0,0,1,1-2l35.24-20.35c.57-.32,1,0,1,.78v.21A2.47,2.47,0,0,1,284.43,187.87Z" style="fill:#fafafa"></path><path d="M276,236,249,251.62c-.44.25-.79,0-.79-.6v-.16a1.88,1.88,0,0,1,.79-1.51L276,233.71c.44-.26.79,0,.79.6v.15A1.89,1.89,0,0,1,276,236Z" style="fill:#455a64"></path><path d="M296.31,188.79l-47.76,27.57c-.22.12-.39-.05-.39-.38a1.06,1.06,0,0,1,.39-.85l47.76-27.57c.22-.13.4.05.4.38A1.07,1.07,0,0,1,296.31,188.79Z" style="fill:#fafafa"></path><path d="M296.31,193.28l-47.76,27.58c-.22.12-.39-.05-.39-.39a1.06,1.06,0,0,1,.39-.84l47.76-27.57c.22-.13.4,0,.4.38A1,1,0,0,1,296.31,193.28Z" style="fill:#fafafa"></path><path d="M296.31,197.78l-47.76,27.58c-.22.12-.39-.05-.39-.39a1.06,1.06,0,0,1,.39-.84l47.76-27.57c.22-.13.4,0,.4.38A1,1,0,0,1,296.31,197.78Z" style="fill:#fafafa"></path><path d="M263.41,221.28l-14.86,8.58c-.22.12-.39-.05-.39-.39a1,1,0,0,1,.39-.84l14.86-8.57c.22-.13.39,0,.39.38A1,1,0,0,1,263.41,221.28Z" style="fill:#fafafa"></path><path d="M296.31,211.3l-47.76,27.57c-.22.13-.39,0-.39-.38a1,1,0,0,1,.39-.84l47.76-27.57c.22-.13.4,0,.4.38A1,1,0,0,1,296.31,211.3Z" style="fill:#fafafa"></path><path d="M272.28,229.67l-23.73,13.7c-.22.13-.39,0-.39-.38a1,1,0,0,1,.39-.84l23.73-13.7c.22-.13.4,0,.4.38A1,1,0,0,1,272.28,229.67Z" style="fill:#fafafa"></path></g></g><g id="freepik--Arrows--inject-7"><g id="freepik--Arrow--inject-7"><path d="M362.75,122.42a15.06,15.06,0,0,0-5.34-2c-10.91-1.71-22.94,8.69-30.73,24.95l-5.23-3-1.43,27,6.66,3.85L343,160.62l-4.55-4.38c5.62-12.28,14.55-20.22,22.64-19l.16,0c4,4.39,6.15,12,6,21l6.66,3.85,7.85-4.54c.05-14.95-4.61-27-12.59-31.55C368.1,125.52,363.81,123.05,362.75,122.42Z" style="fill:#FBDF98"></path><path d="M362.75,122.42a15.06,15.06,0,0,0-5.34-2c-10.91-1.71-22.94,8.69-30.73,24.95l-5.23-3-1.43,27,6.66,3.85L343,160.62l-4.55-4.38c5.62-12.28,14.55-20.22,22.64-19l.16,0c4,4.39,6.15,12,6,21l6.66,3.85,7.85-4.54c.05-14.95-4.61-27-12.59-31.55C368.1,125.52,363.81,123.05,362.75,122.42Z" style="opacity:0.2"></path><polygon points="321.45 142.4 328.11 146.25 326.68 173.27 320.02 169.42 321.45 142.4" style="opacity:0.25"></polygon><path d="M373.94,162.23c.25-13.26-4.57-23.51-12.65-24.91,4,4.4,6.15,12,6,21.06Z" style="opacity:0.25"></path><path d="M338.49,156.24l4.55,4.38-16.36,12.65,1.43-27,4.59,4.41c7.76-17.06,20.15-28.1,31.37-26.34s17.77,15.46,17.71,33.37l-7.85,4.54c.25-13.35-4.63-23.66-12.8-24.94S344.11,144,338.49,156.24Z" style="fill:#FBDF98"></path><g style="opacity:0.2"><path d="M327.11,172l1.3-24.58,4.19,4,.2.19.14-.32c7.88-17.33,20.4-27.84,31.14-26.15,10.27,1.61,17.08,13.82,17.34,31.11,0,.14,0,.28,0,.42v.43l-7.14,4v-.67c-.21-13.41-5.38-22.86-13.17-24.09-8-1.25-17,6.26-22.87,19.15l-.43.92.58.55L342,160.5,327.11,172m-.43,1.26L343,160.62l-4.55-4.38c5.62-12.28,14.55-20.22,22.64-19,7.8,1.22,12.61,10.69,12.81,23.17,0,.58,0,1.17,0,1.77l7.85-4.54c0-.45,0-.89,0-1.33-.26-17.26-6.9-30.34-17.7-32-11.22-1.76-23.61,9.28-31.37,26.34l-4.59-4.41-1.43,27Z" style="fill:#fafafa"></path></g></g><g id="freepik--arrow--inject-7"><path d="M313,276.54l-16.36,12.65h0l4.55,4.38c-5.61,12.27-14.55,20.22-22.64,18.95l-.16,0c-4-4.4-6.15-13.1-6-22.13l-6.66-3.85L257.92,291c-.28,15.44,4.4,27.93,12.56,32.64l6.67,3.86a15,15,0,0,0,5.14,1.82c10.9,1.71,22.93-8.69,30.72-24.95l5.24,3h0l1.42-27Z" style="fill:#FBDF98"></path><path d="M313,276.54l-16.36,12.65h0l4.55,4.38c-5.61,12.27-14.55,20.22-22.64,18.95l-.16,0c-4-4.4-6.15-13.1-6-22.13l-6.66-3.85L257.92,291c-.28,15.44,4.4,27.93,12.56,32.64l6.67,3.86a15,15,0,0,0,5.14,1.82c10.9,1.71,22.93-8.69,30.72-24.95l5.24,3h0l1.42-27Z" style="opacity:0.2"></path><polygon points="296.65 289.19 303.31 293.04 307.86 297.41 301.2 293.57 296.65 289.19" style="opacity:0.25"></polygon><path d="M282.29,329.33c-11.3-1.77-18.05-16-17.7-34.47l7.83-4.51c-.25,13.34,4.64,24.73,12.8,26s17-6.67,22.64-18.95L303.31,293l16.36-12.66-1.42,27L313.66,303C305.9,320.05,293.5,331.09,282.29,329.33Z" style="fill:#FBDF98"></path><g style="opacity:0.2"><path d="M264.93,297.35c0-.58,0-1.16,0-1.75l7.13-4c0,.22,0,1.36,0,1.58.21,13.41,5.38,22.86,13.17,24.09,8,1.26,17-6.26,22.87-19.14l.42-.93-.57-.55-3.59-3.46,14.88-11.5L318,306.22l-4.19-4-.2-.19-.15.32c-7.88,17.32-20.39,27.83-31.13,26.15-10.27-1.62-17.08-13.83-17.35-31.12m-.35-.06c.27,17.26,6.91,30.34,17.71,32,11.21,1.76,23.61-9.28,31.37-26.34l4.59,4.41,1.42-27L303.31,293l4.55,4.37c-5.61,12.28-14.55,20.22-22.64,18.95-7.8-1.22-12.61-10.69-12.8-23.17,0-.58,0-2.24,0-2.84l-7.83,4.51c0,.82,0,1.63,0,2.43Z" style="fill:#fafafa"></path></g><polygon points="313.66 302.99 318.25 307.4 313.01 304.38 313.66 302.99" style="opacity:0.25"></polygon><path d="M277.15,327.51l-6.67-3.86c-8.16-4.71-12.84-17.2-12.56-32.64l6.66,3.84C264.3,310.31,269,322.81,277.15,327.51Z" style="opacity:0.25"></path></g></g><g id="freepik--Plants--inject-7"><g id="freepik--plants--inject-7"><path d="M61.34,439.07l7.23-4.18s4.31-17.9,2.6-34c-2.42-22.64-17.32-31.16-23-29.21s-7.31,8.54,2.07,22C55.78,401.66,62.58,418.24,61.34,439.07Z" style="fill:#FBDF98"></path><g style="opacity:0.65"><path d="M61.34,439.07l7.23-4.18s4.31-17.9,2.6-34c-2.42-22.64-17.32-31.16-23-29.21s-7.31,8.54,2.07,22C55.78,401.66,62.58,418.24,61.34,439.07Z" style="fill:#fff"></path></g><path d="M64.34,430.28h-.07a.49.49,0,0,1-.4-.58c4-20.89-3.33-44.36-12.37-54.12a.51.51,0,0,1,0-.71.5.5,0,0,1,.71,0c9.2,9.94,16.64,33.79,12.61,55A.5.5,0,0,1,64.34,430.28Z" style="fill:#fff"></path><path d="M43.12,449.59c-1.08.55-3.95-1.91-4.76-2.51a10,10,0,0,1-3.14-4,9.44,9.44,0,0,1-.55-5.68,22.39,22.39,0,0,1,.87-3c.33-.95.65-1.91,1-2.87a7.37,7.37,0,0,0,.58-2.91c-.16-2-1.86-3.49-3.4-4.78-1.71-1.42-3.48-3.27-3.34-5.67a8.41,8.41,0,0,1,2.36-4.91c1.22-1.4,2.65-2.61,3.76-4.09a6,6,0,0,0,1.4-3.67,6.24,6.24,0,0,0-.7-2.37,32.56,32.56,0,0,1-2.31-4.8c-.5-1.7-.31-3.79,1.06-4.92a5.5,5.5,0,0,1,4.18-.82,9.49,9.49,0,0,1,3.77,1.55c3.7,2.3,5.64,6.92,9.6,8.76a41.94,41.94,0,0,0,4.83,1.44,6,6,0,0,1,3.9,3c1.33,3-1.61,6.55-.72,9.75.78,2.83,3.43,4,4.82,6.62a6,6,0,0,1,.53,3.68A17.44,17.44,0,0,1,65,433.45a54.9,54.9,0,0,1-3.65,5.62S43.29,449.51,43.12,449.59Z" style="fill:#FBDF98"></path><g style="opacity:0.30000000000000004"><path d="M43.12,449.59c-1.08.55-3.95-1.91-4.76-2.51a10,10,0,0,1-3.14-4,9.44,9.44,0,0,1-.55-5.68,22.39,22.39,0,0,1,.87-3c.33-.95.65-1.91,1-2.87a7.37,7.37,0,0,0,.58-2.91c-.16-2-1.86-3.49-3.4-4.78-1.71-1.42-3.48-3.27-3.34-5.67a8.41,8.41,0,0,1,2.36-4.91c1.22-1.4,2.65-2.61,3.76-4.09a6,6,0,0,0,1.4-3.67,6.24,6.24,0,0,0-.7-2.37,32.56,32.56,0,0,1-2.31-4.8c-.5-1.7-.31-3.79,1.06-4.92a5.5,5.5,0,0,1,4.18-.82,9.49,9.49,0,0,1,3.77,1.55c3.7,2.3,5.64,6.92,9.6,8.76a41.94,41.94,0,0,0,4.83,1.44,6,6,0,0,1,3.9,3c1.33,3-1.61,6.55-.72,9.75.78,2.83,3.43,4,4.82,6.62a6,6,0,0,1,.53,3.68A17.44,17.44,0,0,1,65,433.45a54.9,54.9,0,0,1-3.65,5.62S43.29,449.51,43.12,449.59Z" style="fill:#fff"></path></g><path d="M53.6,444.13h0a.49.49,0,0,1-.44-.52c1.73-18.78-6.09-40-12.23-46.37a.47.47,0,1,1,.68-.66c6.27,6.49,14.25,28.07,12.5,47.12A.49.49,0,0,1,53.6,444.13Z" style="fill:#fff"></path><path d="M51.73,421l-.14,0A64.17,64.17,0,0,0,38,418.05a.48.48,0,0,1-.43-.52.47.47,0,0,1,.52-.43,65,65,0,0,1,13.79,2.95.48.48,0,0,1-.19.92Z" style="fill:#fff"></path></g><g id="freepik--plants--inject-7"><path d="M452.25,344.82,445,340.64s-4.31-17.9-2.59-34c2.41-22.64,17.31-31.16,23-29.21s7.31,8.55-2.07,22C457.81,307.41,451,324,452.25,344.82Z" style="fill:#FBDF98"></path><g style="opacity:0.65"><path d="M452.25,344.82,445,340.64s-4.31-17.9-2.59-34c2.41-22.64,17.31-31.16,23-29.21s7.31,8.55-2.07,22C457.81,307.41,451,324,452.25,344.82Z" style="fill:#fff"></path></g><path d="M449.25,336h.07a.49.49,0,0,0,.4-.59c-4-20.88,3.33-44.35,12.37-54.12a.5.5,0,0,0-.74-.68c-9.2,9.95-16.64,33.8-12.61,55A.5.5,0,0,0,449.25,336Z" style="fill:#fff"></path><path d="M470.47,355.33c1.08.56,3.95-1.91,4.76-2.5a10.16,10.16,0,0,0,3.14-4,9.4,9.4,0,0,0,.55-5.69,21.82,21.82,0,0,0-.87-3c-.33-1-.65-1.92-1-2.87a7.42,7.42,0,0,1-.58-2.92c.16-2,1.86-3.49,3.4-4.77,1.71-1.42,3.48-3.28,3.34-5.67a8.47,8.47,0,0,0-2.36-4.92c-1.22-1.39-2.65-2.61-3.76-4.09a5.92,5.92,0,0,1-1.4-3.66,6.19,6.19,0,0,1,.7-2.37,33,33,0,0,0,2.31-4.8c.5-1.71.31-3.79-1.06-4.93a5.55,5.55,0,0,0-4.18-.82,9.64,9.64,0,0,0-3.77,1.55c-3.7,2.31-5.64,6.93-9.6,8.76a40,40,0,0,1-4.83,1.44,6.05,6.05,0,0,0-3.9,3c-1.33,3,1.61,6.55.72,9.75-.78,2.82-3.43,4-4.82,6.61a6,6,0,0,0-.53,3.68,17.49,17.49,0,0,0,1.85,6.08,56.11,56.11,0,0,0,3.65,5.62S470.3,355.25,470.47,355.33Z" style="fill:#FBDF98"></path><g style="opacity:0.30000000000000004"><path d="M470.47,355.33c1.08.56,3.95-1.91,4.76-2.5a10.16,10.16,0,0,0,3.14-4,9.4,9.4,0,0,0,.55-5.69,21.82,21.82,0,0,0-.87-3c-.33-1-.65-1.92-1-2.87a7.42,7.42,0,0,1-.58-2.92c.16-2,1.86-3.49,3.4-4.77,1.71-1.42,3.48-3.28,3.34-5.67a8.47,8.47,0,0,0-2.36-4.92c-1.22-1.39-2.65-2.61-3.76-4.09a5.92,5.92,0,0,1-1.4-3.66,6.19,6.19,0,0,1,.7-2.37,33,33,0,0,0,2.31-4.8c.5-1.71.31-3.79-1.06-4.93a5.55,5.55,0,0,0-4.18-.82,9.64,9.64,0,0,0-3.77,1.55c-3.7,2.31-5.64,6.93-9.6,8.76a40,40,0,0,1-4.83,1.44,6.05,6.05,0,0,0-3.9,3c-1.33,3,1.61,6.55.72,9.75-.78,2.82-3.43,4-4.82,6.61a6,6,0,0,0-.53,3.68,17.49,17.49,0,0,0,1.85,6.08,56.11,56.11,0,0,0,3.65,5.62S470.3,355.25,470.47,355.33Z" style="fill:#fff"></path></g><path d="M460,349.87h0a.47.47,0,0,0,.44-.51c-1.73-18.79,6.09-40,12.23-46.38a.47.47,0,0,0,0-.67.47.47,0,0,0-.67,0c-6.27,6.49-14.25,28.08-12.5,47.12A.47.47,0,0,0,460,349.87Z" style="fill:#fff"></path><path d="M461.86,326.71l.14,0a63.79,63.79,0,0,1,13.55-2.9.47.47,0,1,0-.09-.94,65.34,65.34,0,0,0-13.79,2.94.47.47,0,0,0-.28.61A.47.47,0,0,0,461.86,326.71Z" style="fill:#fff"></path></g></g><g id="freepik--Character--inject-7"><g id="freepik--Chair--inject-7"><path d="M147.85,442,145,440.38a3.47,3.47,0,0,0-3.12-.06,1,1,0,0,0-.59.84v1.24a1.17,1.17,0,0,0,.69.94l2.82,1.62A3.44,3.44,0,0,0,148,445a1,1,0,0,0,.59-.83v-1.26A1.17,1.17,0,0,0,147.85,442Z" style="fill:#263238"></path><path d="M142,442.12l2.82,1.63a3.47,3.47,0,0,0,3.12.06c.83-.49.78-1.29-.1-1.8L145,440.38a3.47,3.47,0,0,0-3.12-.06C141.08,440.8,141.12,441.61,142,442.12Z" style="fill:#455a64"></path><path d="M167.73,453.47l-2.82-1.62a3.42,3.42,0,0,0-3.11-.06,1,1,0,0,0-.59.84c0,.21,0,1,0,1.24a1.18,1.18,0,0,0,.7.93l2.81,1.63a3.47,3.47,0,0,0,3.12.06,1,1,0,0,0,.59-.83c0-.22,0-1,0-1.26A1.19,1.19,0,0,0,167.73,453.47Z" style="fill:#263238"></path><path d="M161.9,453.59l2.81,1.62a3.44,3.44,0,0,0,3.12.06c.83-.48.79-1.28-.1-1.8l-2.82-1.62a3.42,3.42,0,0,0-3.11-.06C161,452.27,161,453.07,161.9,453.59Z" style="fill:#455a64"></path><path d="M176.57,425.5l-2.82-1.63a3.47,3.47,0,0,0-3.12-.06,1,1,0,0,0-.59.84v1.24a1.19,1.19,0,0,0,.69.94l2.82,1.63a3.47,3.47,0,0,0,3.12.05,1,1,0,0,0,.59-.83c0-.21,0-1,0-1.25A1.19,1.19,0,0,0,176.57,425.5Z" style="fill:#263238"></path><path d="M170.73,425.61l2.82,1.63a3.47,3.47,0,0,0,3.12.06c.83-.48.79-1.29-.1-1.8l-2.82-1.63a3.47,3.47,0,0,0-3.12-.06C169.8,424.29,169.85,425.1,170.73,425.61Z" style="fill:#455a64"></path><path d="M196.45,437l-2.81-1.63a3.47,3.47,0,0,0-3.12-.06,1,1,0,0,0-.59.84c0,.21,0,1,0,1.24a1.17,1.17,0,0,0,.69.94l2.82,1.62a3.42,3.42,0,0,0,3.11.06,1,1,0,0,0,.59-.83c0-.22,0-1,0-1.26A1.17,1.17,0,0,0,196.45,437Z" style="fill:#263238"></path><path d="M190.62,437.08l2.82,1.63a3.41,3.41,0,0,0,3.11.05c.84-.48.79-1.28-.1-1.79l-2.81-1.63a3.47,3.47,0,0,0-3.12-.06C189.69,435.76,189.73,436.57,190.62,437.08Z" style="fill:#455a64"></path><path d="M202.75,442.46a2.15,2.15,0,0,0,1.17-.33,2.77,2.77,0,0,0,1.07-2.76l-8.74-101-1.48.12,8.74,101a1.52,1.52,0,0,1-.38,1.39,1.54,1.54,0,0,1-1.42-.25l-31.34-18.09a6.11,6.11,0,0,1-2.73-4.9l2.91-94.07-1.49,0-2.91,94.06a7.57,7.57,0,0,0,3.48,6.24L201,441.92A3.6,3.6,0,0,0,202.75,442.46Z" style="fill:#263238"></path><rect x="172.87" y="416.02" width="30.95" height="1.49" transform="translate(-183.15 150.01) rotate(-30)" style="fill:#263238"></rect><rect x="138.79" y="397.02" width="30.99" height="1.49" transform="translate(-178.21 130.43) rotate(-30)" style="fill:#263238"></rect><path d="M174.09,459a2.34,2.34,0,0,0,1.2-.32,2.93,2.93,0,0,0,1.24-2.74l-2.92-104.52-1.49,0L175,456a1.19,1.19,0,0,1-2,1.19L141.7,439.09a5.65,5.65,0,0,1-2.53-4.85l8.73-97.56-1.48-.13-8.73,97.56a7.05,7.05,0,0,0,3.27,6.26l31.33,18.1A3.67,3.67,0,0,0,174.09,459Z" style="fill:#37474f"></path><g id="freepik--chair--inject-7"><path d="M192.67,327.27c-11.78-6.8-30.88-6.8-42.67,0-5.89,3.4-8.83,7.86-8.83,12.32v5.48c0,4.45,2.94,8.91,8.83,12.31,11.79,6.81,30.89,6.81,42.67,0,5.89-3.4,8.84-7.86,8.83-12.31v-5.48C201.51,335.13,198.56,330.67,192.67,327.27Z" style="fill:#263238"></path><path d="M192.67,324.61c-11.78-6.8-30.88-6.8-42.67,0-5.89,3.41-8.83,7.86-8.83,12.32v5.48c0,4.45,2.94,8.91,8.83,12.31,11.79,6.81,30.89,6.81,42.67,0,5.89-3.4,8.84-7.86,8.83-12.31v-5.48C201.51,332.47,198.56,328,192.67,324.61Z" style="fill:#FBDF98"></path><path d="M192.67,324.61c-11.78-6.8-30.88-6.8-42.67,0-5.89,3.41-8.83,7.86-8.83,12.32v5.48c0,4.45,2.94,8.91,8.83,12.31,11.79,6.81,30.89,6.81,42.67,0,5.89-3.4,8.84-7.86,8.83-12.31v-5.48C201.51,332.47,198.56,328,192.67,324.61Z" style="opacity:0.30000000000000004"></path><ellipse cx="171.34" cy="336.93" rx="30.17" ry="17.42" style="fill:#FBDF98"></ellipse><ellipse cx="171.34" cy="336.93" rx="30.17" ry="17.42" style="opacity:0.1"></ellipse></g></g><g id="freepik--character--inject-7"><path d="M173.3,242.72c8.59,1.13,11.59,4.69,17.21,11.32,3.27,3.85,13.31,16.91,13.31,16.91,1.39-.9,12.8-8.47,15.65-11.54,3-3.25,2.24-5,2.5-7.45s1.31-4.22,1.21-8.07c-.05-1.84,1.87-1.25,2.55-.11,1.36,2.3.77,6.16,1.83,6.08a9.34,9.34,0,0,0,3.09-2.73c2.23-2.77,2.9-5.44,4.81-8.41.73-1.14,1.68-2.39,3.21-2.19a4.48,4.48,0,0,1,.46.12.57.57,0,0,1,.36.51,5.74,5.74,0,0,1-.13,1.24c-.07.29-.3,1.13-.3,1.13s1.35.36,1.51,1a4.57,4.57,0,0,1-.35,2.79c.53.47,1.32,1.59.18,3.67.5.27,1.45,1.87.23,4.72a37.12,37.12,0,0,1-4.3,7.41c-2.63,3.37-4.92,4.48-8.35,7.93s-9.93,11.16-15.59,16.41c-6.57,6.1-9.13,7.6-14.5,3.87-2.79-1.93-20.36-19.77-20.36-19.77Z" style="fill:#ffbda7"></path><path d="M229,251.45c1.3,2.13.8,6.08-2.49,8.74C230.13,259,232,253.91,229,251.45Z" style="fill:#f0997a"></path><g id="freepik--Bottom--inject-7"><path d="M210.86,374.85s-6.65,12.5-7.68,17.62c-1.07,5.33-2.63,6.92-2.57,12.89,0,1.31.3,4,.32,5a1.55,1.55,0,0,1-1.66,1.71c-2.4.14-5.63-4.81-6.78-9.84a145.18,145.18,0,0,1-2.16-17.48,7.47,7.47,0,0,1,1.29-3.65,11.49,11.49,0,0,1,1.36-1.79c1.11-2.23,2.13-6.62,3.23-9.6Z" style="fill:#ffbda7"></path><path d="M185.06,389a5.52,5.52,0,0,0-.88,1.67c-.22,1.06,1.69,4.95,2.45,6.37a8.71,8.71,0,0,1,.85,6.36,15,15,0,0,0,2.19,10.09,23.77,23.77,0,0,0,10.6,9.39c5.4,2.57,7.81,0,7.81,0s2.16-2.47,1.27-3.74S185.06,389,185.06,389Z" style="fill:#37474f"></path><path d="M193,379.32c-.17,0-.47-.13-1,.34-.2.18-1.6,2.57-2.66,3.78s-3.67,3.42-4.27,5.55c.69,4.39,4.2,7.88,4.21,11.93s-.59,8.65,4.79,14.39,11.56,7.16,14,6.21,2.58-3.4.12-8.45c-2.62-5.36-3.31-16.24-3.31-16.25a33.2,33.2,0,0,1,.07-4.57,28,28,0,0,1,1.07-4.38,2.56,2.56,0,0,0-1.5-3.46,15.13,15.13,0,0,0-3-1.52,5.06,5.06,0,0,0-3.28-.08,23.92,23.92,0,0,1-2.2,1,2.92,2.92,0,0,1-2.91-1,2.51,2.51,0,0,1-.41-2.87A6.05,6.05,0,0,1,193,379.32Z" style="fill:#FBDF98"></path><path d="M193,379.32c-.17,0-.47-.13-1,.34-.2.18-1.6,2.57-2.66,3.78s-3.67,3.42-4.27,5.55c.69,4.39,4.2,7.88,4.21,11.93s-.59,8.65,4.79,14.39,11.56,7.16,14,6.21,2.58-3.4.12-8.45c-2.62-5.36-3.31-16.24-3.31-16.25a33.2,33.2,0,0,1,.07-4.57,28,28,0,0,1,1.07-4.38,2.56,2.56,0,0,0-1.5-3.46,15.13,15.13,0,0,0-3-1.52,5.06,5.06,0,0,0-3.28-.08,23.92,23.92,0,0,1-2.2,1,2.92,2.92,0,0,1-2.91-1,2.51,2.51,0,0,1-.41-2.87A6.05,6.05,0,0,1,193,379.32Z" style="opacity:0.4"></path><path d="M191.07,410.91a9.8,9.8,0,0,1,9.52-3.48c6.46,1,8.21,4.58,8.91,6.66.84,2.48,1.45,6.83-1.4,7.64-3.07.87-6.35,0-11.21-3.42S191.07,410.91,191.07,410.91Z" style="fill:#fafafa"></path><path d="M195.09,391.61a.69.69,0,0,0,.59.08c1.08-.36,6.52-.69,9.18,2.61.45-.26.45-.85.06-1.75-3.26-2.82-8.41-2.53-9.71-2.09a.62.62,0,0,0-.38.82A.78.78,0,0,0,195.09,391.61Z" style="fill:#fafafa"></path><path d="M205,398.17a2,2,0,0,0-.12-1.83,12.21,12.21,0,0,0-9.3-1.75.62.62,0,0,0-.37.82.66.66,0,0,0,.26.33.68.68,0,0,0,.59.08C197.08,395.47,202.24,395.16,205,398.17Z" style="fill:#fafafa"></path><path d="M206.33,407.29a3.67,3.67,0,0,0-.48-2.46c-3.27-2.69-8.3-2.41-9.58-2a.63.63,0,0,0-.38.83.7.7,0,0,0,.85.41C197.88,403.7,203.88,403.36,206.33,407.29Z" style="fill:#fafafa"></path><path d="M195.8,399.87a.65.65,0,0,0,.59.08c1.06-.35,6.39-.67,9.08,2.51a2.25,2.25,0,0,0-.26-2,12.19,12.19,0,0,0-9.29-1.75.63.63,0,0,0-.38.83A.68.68,0,0,0,195.8,399.87Z" style="fill:#fafafa"></path><path d="M214.6,396.36s.48,16.33,2.58,22.92,3.21,9.79,6.63,15c.74,1.14,2.5,3.31,3.11,4.24a1.61,1.61,0,0,1-.5,2.43c-2,1.48-9.74.85-13.59-2.94s-6.82-11.16-9-14.1c-.83-1.1-1.6-2.21-2.32-3.38s-.33-2.07-.25-3.21c0-.56.32-2.05.32-2.05-.22-2.77-2-7.55-2.53-10.28Z" style="fill:#ffbda7"></path><path d="M198.41,427.16a5.75,5.75,0,0,0-.06,2c.28,1.1,3.85,3.89,5.21,4.88a9.12,9.12,0,0,1,3.71,5.61c1,3.5,3.54,6.35,6.67,8.49a24.9,24.9,0,0,0,14.26,4c6.27,0,7.38-3.54,7.38-3.54s.89-3.31-.53-4.1S198.41,427.16,198.41,427.16Z" style="fill:#37474f"></path><path d="M201.46,414.43c-.18.05-.5.1-.78.78-.1.26-.33,3.15-.77,4.77s-1.9,4.9-1.5,7.18c2.66,3.81,7.56,5.5,9.42,9.31s3.39,8.42,11.08,11.37,14.15,1.46,16-.56.88-4.37-3.74-8c-4.91-3.85-10.53-13.78-10.54-13.79a36.37,36.37,0,0,1-2-4.34,30.71,30.71,0,0,1-1-4.61,3.54,3.54,0,0,0-.93-1.94,3.59,3.59,0,0,0-2.06-.64,15.67,15.67,0,0,0-3.49-.07,5.33,5.33,0,0,0-3.13,1.42,21.61,21.61,0,0,1-1.62,1.94,3,3,0,0,1-3.18.41,2.61,2.61,0,0,1-1.69-2.51A6,6,0,0,1,201.46,414.43Z" style="fill:#FBDF98"></path><path d="M201.46,414.43c-.18.05-.5.1-.78.78-.1.26-.33,3.15-.77,4.77s-1.9,4.9-1.5,7.18c2.66,3.81,7.56,5.5,9.42,9.31s3.39,8.42,11.08,11.37,14.15,1.46,16-.56.88-4.37-3.74-8c-4.91-3.85-10.53-13.78-10.54-13.79a36.37,36.37,0,0,1-2-4.34,30.71,30.71,0,0,1-1-4.61,3.54,3.54,0,0,0-.93-1.94,3.59,3.59,0,0,0-2.06-.64,15.67,15.67,0,0,0-3.49-.07,5.33,5.33,0,0,0-3.13,1.42,21.61,21.61,0,0,1-1.62,1.94,3,3,0,0,1-3.18.41,2.61,2.61,0,0,1-1.69-2.51A6,6,0,0,1,201.46,414.43Z" style="opacity:0.4"></path><path d="M214.08,445.05a10.25,10.25,0,0,1,7.38-7.62c6.52-2,9.83.57,11.43,2.21,1.92,1.94,4.48,5.77,2.17,7.82-2.49,2.23-6,2.89-12.12,1.91S214.08,445.05,214.08,445.05Z" style="fill:#fafafa"></path><path d="M209.06,425a.71.71,0,0,0,.6-.19c.84-.83,5.82-3.63,9.83-1.73.3-.45,0-1-.75-1.68-4.36-1.16-9.07,1.46-10.09,2.47a.65.65,0,0,0,0,.95A.74.74,0,0,0,209.06,425Z" style="fill:#fafafa"></path><path d="M221.36,426.71a2.11,2.11,0,0,0-.94-1.67c-4.2-.82-8.58,1.64-9.56,2.6a.65.65,0,0,0,0,.94.71.71,0,0,0,1,0C212.69,427.77,217.42,425.12,221.36,426.71Z" style="fill:#fafafa"></path><path d="M226.8,434.67a3.88,3.88,0,0,0-1.58-2.09c-4.31-1-8.91,1.53-9.92,2.52a.64.64,0,0,0,0,.94.71.71,0,0,0,.4.19.69.69,0,0,0,.59-.19C217.2,435.16,222.69,432.1,226.8,434.67Z" style="fill:#fafafa"></path><path d="M213.5,432.5a.69.69,0,0,0,.59-.19c.84-.82,5.71-3.56,9.7-1.79a2.43,2.43,0,0,0-1.15-1.76,12.77,12.77,0,0,0-9.56,2.61.66.66,0,0,0,0,.94A.71.71,0,0,0,213.5,432.5Z" style="fill:#fafafa"></path><path d="M186.56,301.09c7.28,4.08,24,12.89,35.94,25.16,4.27,4.39,6.94,8.25,2.72,19.81-3.26,8.9-9,18.75-14.2,30.28l-52.76-61.86Z" style="fill:#455a64"></path><path d="M211.73,374.78c-8.17-7.36-33.65-50.82-33.65-50.82l1.15-.2c6.21-2.87,8.15-10.51,8.15-10.51a12.4,12.4,0,0,1-2.08,10c3.57,2.6,11.46,8.67,23.87,17.91,2.16,1.61,6.21,5.52,6,11.62-.23,8-.37,15.79-.37,15.79Z" style="fill:#263238"></path><path d="M183.67,303.13h0l-43.87,1.38c-2.32,6.84-3.75,20.61-1.09,27.25,2.9,7.22,5.87,12.23,21,18.56,12.76,5.33,25.3,9.36,28.11,10.85,2.11,1.13,1.8,5.95,2.51,11.6.75,5.92,1.42,9.22,4.79,21.86,1.64,6.14,3.74,13.25,3.74,13.25s9.88,1.89,17.37-2.33c0,0-1.82-33.83-2.33-41.47-.43-6.53-.09-12.62-5-17.43-4.25-4.13-29.64-22.89-29.64-22.89S188.21,314.77,183.67,303.13Z" style="fill:#455a64"></path></g><g id="freepik--Top--inject-7"><g id="freepik--Chest--inject-7"><path d="M156.88,240.53A68.58,68.58,0,0,0,139,245.67c-5.17,2.31-9,9.71-5.68,23.08.92,3.62,3.6,9.46,5.37,17.49a22.35,22.35,0,0,1,.31,9.29,114.68,114.68,0,0,0-1.52,20.88s11.87,8,33.35,1.39c17.21-5.26,20.54-14,20.54-14a76,76,0,0,0-4.63-14.43,42.37,42.37,0,0,0,0-10.26A17.88,17.88,0,0,0,191.12,269c.74-5.88-2.1-10-7.8-16.46a82.32,82.32,0,0,0-10-9.8Z" style="fill:#37474f"></path></g><path d="M155.6,193.48c2.84,1.36,4.06,2.42,6.65-.18,3-2.35,7.42-1.29,9.58,1.72.74,1,1.49,2.26,2.69,2.28.67,0,1.55-.41,2.78-.51a4.77,4.77,0,0,1,4.49,2.73,7.42,7.42,0,0,1-.14,3.27,2.9,2.9,0,0,0,1.08,2.83,1.73,1.73,0,0,0,2.53-.92c1,.92.73,2.83-.32,3.76a4.85,4.85,0,0,1-3.88.9c2.46.48,4.57,3.34,3.28,5.9-.58,1.12-1.76,1.88-2.07,3.11-.37,1.53.67,3.18.59,4.74a4.3,4.3,0,0,1-3.44,3.81,7.26,7.26,0,0,0-3.47,1.69c-1.3,1.17-1.92,3-3.16,4.29-6.11,5.82-9.6-2.8-15.58-.1a13.45,13.45,0,0,0-2.24,1.53c-.3.24-.6.47-.92.68a2.57,2.57,0,0,0-.78.57,2.27,2.27,0,0,1-1.73.88,6.32,6.32,0,0,1-1.93-.25c-2-.47-4.18-1.1-5.53-2.76a16.54,16.54,0,0,1-1.15-1.79,6.2,6.2,0,0,0-2.88-2.76c-1.44-.53-3.16-.14-4.43-1a5,5,0,0,1-1.69-3,9.94,9.94,0,0,0-1.17-3.36,3.71,3.71,0,0,0-3.64-1.53,6.06,6.06,0,0,1,2.37-3.43,26.8,26.8,0,0,1,2.48-1.32,3.5,3.5,0,0,0,1.44-1.3,5.93,5.93,0,0,0,.79-1.95,6.53,6.53,0,0,0,.14-.77c.19-1.43.12-2.88.35-4.3a7.33,7.33,0,0,1,3.73-5.48c.93-.43,1.94-.59,2.9-.94a4.39,4.39,0,0,0,1.78-1.14c.2-.23.38-.48.59-.71a2.62,2.62,0,0,0,.45-.73,10.94,10.94,0,0,1,1.68-3C149.77,192.63,153.06,192.4,155.6,193.48Z" style="fill:#263238"></path><path d="M158.37,204.48a3,3,0,0,1-1.41.41,5.76,5.76,0,0,1-1.52-.34,7.48,7.48,0,0,0-3.11-.4,3.86,3.86,0,0,0-2.3.95,3.57,3.57,0,0,0-.79,2.18,1.81,1.81,0,0,1-2,1.78,7.4,7.4,0,0,0-2.25.23c-1.47.56-1.49,2.36-1.14,3.65,0,.16.16-.05.16-.12,0-1-.21-2.2.7-2.83a4.26,4.26,0,0,1,2.32-.38,2.31,2.31,0,0,0,2.57-2.06c.19-1,.35-1.85,1.39-2.34a5.48,5.48,0,0,1,3.1-.3c1.19.21,3.53,1.45,4.33-.14C158.49,204.71,158.52,204.42,158.37,204.48Zm-.91,1.81a4.24,4.24,0,0,1-2.09.21,7.31,7.31,0,0,0-2.28-.22,3.24,3.24,0,0,0-2.45,2.45,3.93,3.93,0,0,1-.86,1.76c-.64.57-1.57.42-2.35.48-1,.07-2.3.74-1.83,1.93.05.13.16,0,.16-.09,0-1.75,2.76-1,3.79-1.46s1.25-1.52,1.65-2.4a2.86,2.86,0,0,1,3.2-1.75c1,.14,2.46.53,3.16-.53C157.61,206.59,157.67,206.22,157.46,206.29Zm-2.14,2.28a2.89,2.89,0,0,0-2.26,1,7.46,7.46,0,0,0-.55,1.3,2.39,2.39,0,0,1-.95,1c-.81.47-1.82.44-2.48,1.17a2.19,2.19,0,0,0-.4,2.18c.06.18.2,0,.19-.12a1.93,1.93,0,0,1,1.18-2,6.88,6.88,0,0,0,2.26-1,3.09,3.09,0,0,0,.62-.86c.16-.36.24-.76.43-1.1a2.05,2.05,0,0,1,1-.84,5.93,5.93,0,0,1,.71-.24,1.55,1.55,0,0,1,.43-.07c.05,0,.51,0,.51-.06a2.49,2.49,0,0,0,.66-.13s.09,0,.1-.09-.06-.1-.11-.12a2,2,0,0,0-.95-.07Z" style="fill:#455a64"></path><path d="M175.74,217.91c-.07-1.16.3-3.42.17-4.34-.8-5.43-3.72-5.8-6.69-6.19-4.51-.59-8.81-1.72-11.26-4.64-.43,4-2.54,8.9-5.12,9.55,1,3.21.14,6.66-2.67,7.61-.73-3.41-4.56-3.38-6.73-1.49s-1.76,7.68,1.3,10.14,5.14.64,5.14.64L149,243s4.55,8.79,19.57,10.56c2.13-5-4-11.16-4-11.16l.21-5.25a12.08,12.08,0,0,0,5.48-.95c1.68-.75,5.53-2.8,5.69-13.12C176,221.26,175.82,219.32,175.74,217.91Z" style="fill:#ffbda7"></path><path d="M161.38,226.09l5.58,1.55a2.85,2.85,0,0,1-3.51,2.11A3,3,0,0,1,161.38,226.09Z" style="fill:#b16668"></path><path d="M164.82,229.78a2.77,2.77,0,0,1-1.37,0,3,3,0,0,1-2.09-2.3A3.58,3.58,0,0,1,164.82,229.78Z" style="fill:#f28f8f"></path><path d="M165.11,215.8l.6,9.13,5.31-1.31C169,220,167,217.24,165.11,215.8Z" style="fill:#f0997a"></path><path d="M164.82,237.14c-2.86-.55-10.61-1.59-13.24-6.56a7.09,7.09,0,0,0,2.1,4.71c3.61,3.12,11.06,4,11.06,4Z" style="fill:#f0997a"></path><path d="M160.91,211.71l-3.57,1.35a2,2,0,0,1,1.14-2.52A1.86,1.86,0,0,1,160.91,211.71Z" style="fill:#263238"></path><path d="M173.71,212.27l-3.61-1.36a1.84,1.84,0,0,1,2.42-1.16A2,2,0,0,1,173.71,212.27Z" style="fill:#263238"></path><path d="M161.32,217a1.49,1.49,0,1,1-1.52-1.46A1.49,1.49,0,0,1,161.32,217Z" style="fill:#263238"></path><path d="M172.82,216.78a1.49,1.49,0,1,1-1.52-1.46A1.49,1.49,0,0,1,172.82,216.78Z" style="fill:#263238"></path></g><g id="freepik--Laptop--inject-7"><path d="M158.4,330.82v.92a2.61,2.61,0,0,0,1.31,2.26l25,14.2a2.61,2.61,0,0,0,1.31.34,2.64,2.64,0,0,0,1.3-.35l45.54-26.61a2.61,2.61,0,0,0,1.29-2.27v-.64L186,346.8Z" style="fill:#ebebeb"></path><path d="M234.14,318.67,207,303.18a1.54,1.54,0,0,0-1.55,0l-46.85,27.37a.35.35,0,0,0,0,.6L186,346.8Z" style="fill:#fafafa"></path><polygon points="185.74 344.51 171.08 336.16 213.67 311.27 228.4 319.58 185.74 344.51" style="fill:#e0e0e0"></polygon><polygon points="178.43 321.11 178.7 321.26 185.88 325.36 198.58 317.94 198.84 317.79 191.39 313.54 178.43 321.11" style="fill:#e0e0e0"></polygon><polygon points="178.7 321.26 185.88 325.36 198.58 317.94 191.39 313.84 178.7 321.26" style="fill:#e6e6e6"></polygon><path d="M186,346.8v1.74a2.64,2.64,0,0,0,1.3-.35l45.54-26.61a2.61,2.61,0,0,0,1.29-2.27v-.64Z" style="fill:#ebebeb"></path><g style="opacity:0.5;mix-blend-mode:multiply"><path d="M186,346.8v1.74a2.64,2.64,0,0,0,1.3-.35l45.54-26.61a2.61,2.61,0,0,0,1.29-2.27v-.64Z" style="fill:#e0e0e0"></path></g><path d="M186.73,347.18a3.1,3.1,0,0,0,2.67-.22l45.34-26.49a3.1,3.1,0,0,0,1.49-2.17l4.82-29.71a2.92,2.92,0,0,0,0-.51,3.08,3.08,0,0,0-.92-2.19l-47.12,27.53A2.28,2.28,0,0,0,192,315Z" style="fill:#FBDF98"></path><g style="opacity:0.7000000000000001"><path d="M186.73,347.18a3.1,3.1,0,0,0,2.67-.22l45.34-26.49a3.1,3.1,0,0,0,1.49-2.17l4.82-29.71a2.92,2.92,0,0,0,0-.51,3.08,3.08,0,0,0-.92-2.19l-47.12,27.53A2.28,2.28,0,0,0,192,315Z" style="fill:#fff"></path></g><path d="M186,346.8l.31.18a2.67,2.67,0,0,0,.42.2L192,315a2.28,2.28,0,0,1,1.1-1.61l47.12-27.53a3.45,3.45,0,0,0-.64-.48L192.32,313a2.31,2.31,0,0,0-1.1,1.61Z" style="fill:#fafafa"></path><path d="M212.2,319.64c.33-2,2.37-4.64,4.56-5.92s3.7-.7,3.38,1.29-2.36,4.64-4.55,5.92S211.88,321.63,212.2,319.64Z" style="fill:#FBDF98"></path></g><g id="freepik--Arm--inject-7"><path d="M118.15,292.28a307.8,307.8,0,0,1,7.1-34.89c1.26-4.66,4.06-8.85,13.74-11.72,6,7.25,2.11,22.64,1.09,26L134,294.51a131.31,131.31,0,0,0,11.17,10A29.09,29.09,0,0,0,160.09,311c5.88.87,8.28.75,11.32,2.18,1.62.76,5.31,2.53,6.57,3.21s3.47,3.07,5.54,4.68-.57,2.46-2.1,2a19.9,19.9,0,0,1-4.58-2.39A26.49,26.49,0,0,0,172.9,319a23.23,23.23,0,0,1,.71,4.68c0,.85.14,1.88-.62,2.48a6.43,6.43,0,0,1-1.8.68,1.28,1.28,0,0,1-.38.81,2.13,2.13,0,0,1-1.52.35,6,6,0,0,1-.86-.16,1.58,1.58,0,0,1-1,1.2,6.83,6.83,0,0,1-3.63,0c-.18-.08-1.5-.85-1.89-1.07a3.43,3.43,0,0,1-1.31-.88c-.28-.45.58-1.44,1.28-1.53a7,7,0,0,1,2.3.22,7.84,7.84,0,0,1-.62-2c-.6-1-5.16-.14-9.17-1-3-.61-5.14-3.57-6.49-4.23A258.62,258.62,0,0,1,124,305.81C117,301.57,117.13,299.29,118.15,292.28Z" style="fill:#ffbda7"></path><path d="M173.68,319.27c-.43-1.16-1.11-2.55-2-2.9a10.4,10.4,0,0,1,1.19,2.6Z" style="fill:#f0997a"></path><path d="M171.19,326.81a9.51,9.51,0,0,0,.15-2.5,23.07,23.07,0,0,0-.25-2.49,11.1,11.1,0,0,0-.6-2.45,4.56,4.56,0,0,0-1.45-2.05,3.3,3.3,0,0,1,.66,1,7.89,7.89,0,0,1,.44,1.14,18.53,18.53,0,0,1,.48,2.4c.13.82.24,1.64.35,2.45A22.66,22.66,0,0,1,171.19,326.81Z" style="fill:#f0997a"></path><path d="M168.43,327.81a11.24,11.24,0,0,0,.07-2.46,20,20,0,0,0-.29-2.44,16.84,16.84,0,0,0-.6-2.4,4.65,4.65,0,0,0-1.2-2.14,2.92,2.92,0,0,1,.52,1.08,11.19,11.19,0,0,1,.32,1.17c.18.78.35,1.57.48,2.37C168,324.59,168.29,326.18,168.43,327.81Z" style="fill:#f0997a"></path><path d="M161.89,325.55a4,4,0,0,1,1,.17c.32.09.55.26,1,.41l-.16-.28a1.08,1.08,0,0,0,.05.49,1.24,1.24,0,0,0,.22.39,1.38,1.38,0,0,0,.68.47,4.17,4.17,0,0,1-.4-.64,2,2,0,0,1-.09-.33.87.87,0,0,1,0-.28l0-.18-.19-.09a3.22,3.22,0,0,0-1-.23A2,2,0,0,0,161.89,325.55Z" style="fill:#f0997a"></path></g></g></g></svg>
